<?xml version="1.0"?>
<svg xmlns="http://www.w3.org/2000/svg" viewBox="0 0 128 128"><path d="m19.037 113.876-10.005-112.215h109.936l-10.016 112.198-45.019 12.48z" fill="#e44d26"/><path d="m64 116.8 36.378-10.086 8.559-95.878h-44.937z" fill="#f16529"/><path d="m64 52.455h-18.212l-1.258-14.094h19.47v-13.762h-34.511l.33 3.692 3.382 37.927h30.799zm0 35.743-.061.017-15.327-4.14-.979-10.975h-13.817l1.928 21.609 28.193 7.826.063-.017z" fill="#ebebeb"/><path d="m63.952 52.455v13.763h16.947l-1.597 17.849-15.35 4.143v14.319l28.215-7.82.207-2.325 3.234-36.233.335-3.696h-3.708zm0-27.856v13.762h33.244l.276-3.092.628-6.978.329-3.692z" fill="#fff"/></svg>
