<?xml version="1.0"?>
<svg xmlns="http://www.w3.org/2000/svg" viewBox="0 0 112 126.38"><g fill="#8d6748"><path d="m91.78 58.77-2.3 5.42h4.61z"/><path d="m60.91 52h4a1 1 0 0 0 .54-.24c2.32-2.76 2.65-8.16 2.65-10.06a.7.7 0 0 0 -.68-.7h-9a.68.68 0 0 0 -.68.68c.07 1.9.34 7.36 2.65 10.08a.65.65 0 0 0 .52.24zm4.41-5.16c1.68-.61 1.68-1.22 1.68-1.22a10.69 10.69 0 0 1 -2 5.24.51.51 0 0 1 -.41.15h-3.34c-.14 0-.34 0-.41-.15a9.6 9.6 0 0 1 -1.7-3.77s3.94.56 6.18-.25z" transform="translate(-8 -.81)"/><path d="m116.42 29.94-48.94-28.22a6.83 6.83 0 0 0 -6.83 0l-49.05 28.22a6.9 6.9 0 0 0 -3.6 5.84v56.44a7 7 0 0 0 3.58 5.83l48.94 28.22a6.83 6.83 0 0 0 6.83 0l49.05-28.21a7.14 7.14 0 0 0 3.6-5.83v-56.45a7 7 0 0 0 -3.58-5.84zm-4.42 58.35a5.77 5.77 0 0 1 -2.94 5l-42.2 24.37a5.65 5.65 0 0 1 -5.84 0l-42.15-24.35a5.63 5.63 0 0 1 -2.87-5v-48.73a5.71 5.71 0 0 1 2.87-5l42.13-24.38a5.6 5.6 0 0 1 5.82 0l42.21 24.35a5.69 5.69 0 0 1 2.93 5z" transform="translate(-8 -.81)"/><circle cx="40" cy="62.53" r="4.84"/><path d="m108.06 36.32-42.21-24.32a3.87 3.87 0 0 0 -1.91-.54 4.06 4.06 0 0 0 -1.94.54l-42.13 24.32a3.88 3.88 0 0 0 -1.87 3.33v48.7a3.87 3.87 0 0 0 1.87 3.32l42.13 24.33a3.62 3.62 0 0 0 1.89.54 3.82 3.82 0 0 0 1.9-.54l42.23-24.35a3.94 3.94 0 0 0 1.98-3.3v-48.7a3.94 3.94 0 0 0 -1.94-3.33zm-41.06 31.87a4.8 4.8 0 0 0 3.65-1.69l1.52 1.5a7.7 7.7 0 0 1 -1.08 1 5.9 5.9 0 0 1 -1.22.75 5 5 0 0 1 -1.42.47 8.33 8.33 0 0 1 -1.83.14 6.72 6.72 0 0 1 -4.88-2 6.1 6.1 0 0 1 -1.3-2.24 7.34 7.34 0 0 1 -.44-2.73v-.07a7.12 7.12 0 0 1 .42-2.71 7.63 7.63 0 0 1 1.36-2.24 6.35 6.35 0 0 1 2.22-1.49 7.53 7.53 0 0 1 2.83-.54 13.09 13.09 0 0 1 1.69.14c.54.14.95.27 1.42.41a6.43 6.43 0 0 1 1.15.68 11.79 11.79 0 0 1 1 .88l-1.56 1.63a4.83 4.83 0 1 0 -3.53 8.11zm-2.83-37.63c-.34.47.07 1.63.95 3a2.83 2.83 0 0 1 -.95 4 3.83 3.83 0 0 0 -.75-2.31c-1.62-2.46-.13-3.61.75-4.69zm-2.71 2.51c-.27.27 0 1.09.61 2a1.91 1.91 0 0 1 -.61 2.71 2.74 2.74 0 0 0 -.46-1.53c-1.1-1.69-.15-2.44.46-3.18zm-4.96 5.93h12.76a.64.64 0 0 1 .68.63c0 2.37-.34 10.37-3.74 14.14a.64.64 0 0 1 -.47.23h-5.73a.67.67 0 0 1 -.47-.26c-3.37-3.86-3.7-11.74-3.7-14.08a.66.66 0 0 1 .67-.66zm-35.5 10h34.35s.07 0 .07 1h-34.42zm34 14.32v.07a7.37 7.37 0 0 1 -.47 2.71 6.7 6.7 0 0 1 -1.46 2.24 6.4 6.4 0 0 1 -2.22 1.49 6.63 6.63 0 0 1 -2.84.54 7.86 7.86 0 0 1 -2.84-.54 6.47 6.47 0 0 1 -2.24-1.49 6.3 6.3 0 0 1 -1.41-2.24 7.16 7.16 0 0 1 -.52-2.71v-.07a7.43 7.43 0 0 1 .53-2.71 6.79 6.79 0 0 1 1.47-2.24 6.46 6.46 0 0 1 2.23-1.49 6.66 6.66 0 0 1 2.85-.54 7.88 7.88 0 0 1 2.85.54 6.48 6.48 0 0 1 2.24 1.49 6.18 6.18 0 0 1 1.35 2.24 7.14 7.14 0 0 1 .48 2.71zm-25.9 3.68h-.1l-4-6.46v9.46h-3v-13h3l4.14 6.38 4.09-6.38h2.77v13h-3v-9.53zm77.9 8h-86v-1h86zm-21-13v-5h2v13h-2v-6h-7v6h-2v-13h2v5zm6.73 8 6-13h2.17l6 13h-2.51l-1.39-3h-6.4l-1.42 3zm14.27-20h-36.59c0-1 .07-1 .07-1h36.52z" transform="translate(-8 -.81)"/></g></svg>
