<svg xmlns="http://www.w3.org/2000/svg" width="164px" viewBox="0 0 164 64" xmlns:xlink="http://www.w3.org/1999/xlink">
  <g>
    <g transform="translate(-1729 803)">
      <use fill="#262427" xlink:href="#a" transform="translate(1729 -803)"/>
    </g>
  </g>
  <defs>
    <path id="a" fill-rule="evenodd" d="M114 32c0 5.0206-1.156 9.7712-3.217 14H53.2169C51.1562 41.7712 50 37.0206 50 32s1.1562-9.7712 3.2169-14h57.5661c2.061 4.2288 3.217 8.9794 3.217 14zm-3.217-14C105.59 7.34308 94.6525 0 82 0S58.4102 7.34308 53.2169 18H0v28h53.2169C58.4102 56.6569 69.3475 64 82 64s23.59-7.3431 28.783-18H164V18h-53.217zM17.1871 35.936c-.192-.224-.432-.336-.7199-.336h-.8161c-.5119 0-.9439-.216-1.296-.648-.3519-.432-.528-.968-.528-1.608v-5.928h2.0401c.3359 0 .6079-.096.8159-.288.208-.192.312-.432.312-.72 0-.32-.104-.576-.312-.768-.208-.192-.48-.288-.8159-.288h-2.0401v-3.456c0-.352-.1119-.64-.3359-.864-.224-.224-.5121-.336-.864-.336-.3521 0-.64.112-.864.336-.224.224-.3361.512-.3361.864v3.456h-1.104c-.33592 0-.6079.096-.8159.288-.208.192-.312.448-.312.768 0 .288.104.528.312.72.208.192.47998.288.8159.288h1.104v5.928c0 .88.1841 1.672.552 2.376.3681.704.8721 1.264 1.5121 1.68.656.4 1.376.6 2.1599.6h.432c.416 0 .7521-.112 1.0081-.336.272-.224.4079-.512.4079-.864s-.104-.64-.312-.864zM30.252 25.472c-.8801-.48-1.872-.72-2.976-.72-.8 0-1.552.144-2.256.432-.7041.272-1.312.664-1.8241 1.176v-5.88c0-.368-.1119-.664-.3359-.888-.224-.224-.52-.336-.8881-.336-.3519 0-.6479.112-.8879.336-.224.224-.3361.52-.3361.888V36.8c0 .352.1121.648.3361.888.24.224.536.336.8879.336.3681 0 .6641-.112.8881-.336.224-.24.3359-.536.3359-.888v-6.768c0-.576.1521-1.096.4561-1.56.3199-.464.7519-.832 1.296-1.104.5599-.272 1.176-.408 1.848-.408 1.152 0 2.0719.336 2.7599 1.008.7041.656 1.056 1.632 1.056 2.928V36.8c0 .352.1121.648.3361.888.24.224.536.336.8879.336.3521 0 .6401-.112.8641-.336.2399-.24.3599-.536.3599-.888v-5.904c0-1.296-.2479-2.4-.744-3.312-.496-.928-1.1839-1.632-2.0639-2.112zM48.8428 32c.208-.208.312-.464.312-.768 0-1.264-.24-2.384-.72-3.36s-1.1681-1.736-2.0641-2.28c-.896-.544-1.9599-.816-3.1919-.816-1.248 0-2.368.288-3.3601.864-.9759.56-1.7439 1.352-2.3039 2.376-.544 1.008-.8161 2.152-.8161 3.432 0 1.28.2881 2.424.864 3.432.5921 1.008 1.4081 1.8 2.448 2.376 1.0401.56 2.2161.84 3.5281.84.736 0 1.5039-.136 2.304-.408.816-.272 1.4959-.624 2.04-1.056.256-.192.3839-.432.3839-.72 0-.304-.1439-.576-.4319-.816-.176-.16-.416-.24-.7201-.24-.3039 0-.5679.088-.7919.264-.336.256-.768.472-1.2961.648-.5119.176-1.0079.264-1.4879.264-1.216 0-2.248-.344-3.0961-1.032-.8319-.688-1.3359-1.592-1.5119-2.712h9.12c.3199 0 .584-.096.792-.288zm-8.52-4.2c.736-.64 1.6879-.96 2.856-.96 1.0559 0 1.912.32 2.568.96.656.64 1.0559 1.496 1.2 2.568h-7.992c.1919-1.072.648-1.928 1.368-2.568zm22.1543-2.136c-1.0081-.592-2.1281-.888-3.36-.888-1.2321 0-2.3521.296-3.36.888-.9921.576-1.7841 1.376-2.3761 2.4-.5759 1.008-.8639 2.136-.8639 3.384v10.944c0 .368.1119.664.3359.888.24.224.536.336.8881.336.3679 0 .6639-.112.8879-.336.224-.224.3361-.52.3361-.888v-6.48c.5599.688 1.24 1.224 2.0399 1.608.8001.384 1.6641.576 2.592.576 1.152 0 2.1921-.288 3.12-.864.944-.576 1.68-1.368 2.208-2.376.544-1.024.8161-2.16.8161-3.408 0-1.248-.2881-2.376-.864-3.384-.5761-1.024-1.3761-1.824-2.4-2.4zM61.277 35.36c-.6399.384-1.36.576-2.1599.576-.8001 0-1.5281-.192-2.1841-.576-.6399-.4-1.1439-.936-1.512-1.608-.368-.688-.552-1.456-.552-2.304 0-.848.184-1.616.552-2.304.3681-.688.8721-1.224 1.512-1.608.656-.4 1.384-.6 2.1841-.6.7999 0 1.52.2 2.1599.6.656.384 1.1681.92 1.536 1.608.384.688.576 1.456.576 2.304 0 .848-.192 1.616-.576 2.304-.3679.672-.88 1.208-1.536 1.608zm17.859-9.888c-.88-.48-1.872-.72-2.976-.72-.8 0-1.552.144-2.2559.432-.704.272-1.3121.664-1.824 1.176v-5.88c0-.368-.1121-.664-.3361-.888-.224-.224-.52-.336-.8879-.336-.3521 0-.6481.112-.8881.336-.224.224-.3359.52-.3359.888V36.8c0 .352.1119.648.3359.888.24.224.536.336.8881.336.3679 0 .6639-.112.8879-.336.224-.24.3361-.536.3361-.888v-6.768c0-.576.152-1.096.4559-1.56.3201-.464.7521-.832 1.296-1.104.5601-.272 1.1761-.408 1.8481-.408 1.1519 0 2.072.336 2.76 1.008.7039.656 1.0559 1.632 1.0559 2.928V36.8c0 .352.112.648.336.888.24.224.536.336.888.336s.64-.112.864-.336c.24-.24.36-.536.36-.888v-5.904c0-1.296-.248-2.4-.7439-3.312-.4961-.928-1.1841-1.632-2.0641-2.112zm7.6948 12.192c.24.224.536.336.8881.336.3679 0 .6639-.112.8879-.336.224-.24.3361-.536.3361-.888v-10.68c0-.368-.1121-.664-.3361-.888-.224-.224-.52-.336-.8879-.336-.3521 0-.6481.112-.8881.336-.224.224-.3359.52-.3359.888v10.68c0 .352.1119.648.3359.888zm-.24-15.384c.3201.304.6961.456 1.1281.456.432 0 .7999-.152 1.104-.456.3199-.32.48-.696.48-1.128 0-.432-.1601-.8-.48-1.104-.3041-.32-.672-.48-1.104-.48-.432 0-.808.16-1.1281.48-.3039.304-.4559.672-.4559 1.104 0 .432.152.808.4559 1.128zm8.3942 15.168c.56.368 1.1841.552 1.8721.552h.0479c.48 0 .872-.112 1.1761-.336.3039-.224.4559-.512.4559-.864s-.104-.64-.312-.864c-.1919-.224-.448-.336-.768-.336h-.5999c-.3521 0-.6401-.192-.8641-.576-.224-.384-.336-.872-.336-1.464V20.456c0-.352-.112-.64-.336-.864-.224-.224-.5119-.336-.864-.336-.352 0-.64.112-.864.336-.224.224-.3359.512-.3359.864V33.56c0 .848.152 1.616.4559 2.304.3041.672.728 1.2 1.272 1.584zm14.797-11.808c-.992-.576-2.12-.864-3.384-.864-1.28 0-2.424.288-3.432.864-1.008.56-1.792 1.344-2.352 2.352-.56 1.008-.8402 2.16-.8402 3.456 0 1.28.2562 2.424.7682 3.432.528 1.008 1.256 1.8 2.184 2.376.944.56 2.008.84 3.192.84 1.024 0 1.944-.248 2.76-.744.816-.496 1.472-1.184 1.968-2.064v1.176c0 1.008-.192 1.872-.576 2.592-.384.736-.896 1.288-1.536 1.656-.64.384-1.352.576-2.136.576-.832 0-1.576-.152-2.232-.456-.656-.288-1.2-.712-1.632-1.272-.256-.336-.584-.504-.984-.504-.224 0-.448.072-.672.216-.336.24-.504.528-.504.864 0 .224.088.448.264.672.672.848 1.504 1.496 2.496 1.944.992.464 2.064.696 3.216.696 1.28 0 2.424-.304 3.432-.912 1.024-.592 1.816-1.408 2.376-2.448.56-1.04.84-2.192.84-3.456v-5.184c0-1.296-.288-2.448-.864-3.456-.56-1.008-1.344-1.792-2.352-2.352zm-1.2 9.72c-.64.384-1.368.576-2.184.576-.816 0-1.552-.192-2.208-.576-.64-.384-1.144-.912-1.512-1.584-.368-.688-.552-1.464-.552-2.328 0-.864.184-1.64.552-2.328.368-.688.872-1.224 1.512-1.608.656-.384 1.392-.576 2.208-.576.816 0 1.544.192 2.184.576.656.384 1.16.92 1.512 1.608.368.688.552 1.464.552 2.328 0 .864-.184 1.64-.552 2.328-.352.672-.856 1.2-1.512 1.584zm16.723-10.248c-.48-.256-1.144-.384-1.992-.384-.8 0-1.552.16-2.256.48-.704.32-1.296.76-1.776 1.32v-.456c0-.8-.4-1.2-1.2-1.2-.384 0-.68.104-.888.312-.208.208-.312.504-.312.888V36.8c0 .4.104.704.312.912.208.192.504.288.888.288.4 0 .696-.104.888-.312.208-.208.312-.504.312-.888v-7.008c0-.896.352-1.608 1.056-2.136.704-.528 1.632-.792 2.784-.792.4 0 .92.056 1.56.168.16.032.28.048.36.048.496 0 .816-.256.96-.768.016-.048.024-.128.024-.24 0-.384-.24-.704-.72-.96zm11.815.552c-.992-.592-2.104-.888-3.336-.888-1.232 0-2.36.296-3.384.888-1.008.576-1.8 1.376-2.376 2.4-.576 1.008-.864 2.136-.864 3.384 0 1.248.264 2.384.792 3.408.544 1.008 1.28 1.8 2.208 2.376.944.576 1.992.864 3.144.864.928 0 1.792-.192 2.592-.576.8-.384 1.48-.92 2.04-1.608v.888c0 .352.112.648.336.888.24.224.536.336.888.336s.64-.112.864-.336c.24-.24.36-.536.36-.888v-5.352c0-1.248-.296-2.376-.888-3.384-.576-1.024-1.368-1.824-2.376-2.4zm-1.176 9.696c-.64.384-1.36.576-2.16.576s-1.528-.192-2.184-.576c-.64-.4-1.152-.936-1.536-1.608-.368-.688-.552-1.456-.552-2.304 0-.848.184-1.616.552-2.304.384-.688.896-1.224 1.536-1.608.656-.4 1.384-.6 2.184-.6.8 0 1.52.2 2.16.6.656.384 1.168.92 1.536 1.608.368.688.552 1.456.552 2.304 0 .848-.184 1.616-.552 2.304-.368.672-.88 1.208-1.536 1.608zm19.099-9.432c0-.432-.248-.744-.744-.936-.176-.08-.368-.12-.576-.12-.416 0-.728.232-.936.696l-3.864 8.712-4.392-8.736c-.224-.448-.56-.672-1.008-.672-.176 0-.336.032-.48.096-.208.096-.376.232-.504.408-.128.176-.192.368-.192.576 0 .192.04.36.12.504l5.4 10.248-2.4 5.4c-.096.192-.144.384-.144.576 0 .416.24.728.72.936.224.096.416.144.576.144.432 0 .744-.248.936-.744l7.344-16.512c.096-.224.144-.416.144-.576z"/>
  </defs>
</svg>