<?xml version="1.0"?>
<!--Icons from directory ""-->
<svg xmlns="http://www.w3.org/2000/svg" width="222" height="1100" viewBox="0 0 222 1100"><svg xmlns:xlink="http://www.w3.org/1999/xlink" height="50" width="185" version="1.1" viewBox="0 0 185 50" id="angular" y="0"><title>angular</title><desc>Created using Figma</desc><g id="angular-Canvas" transform="translate(92 537)"><g id="angular-angular"><g id="angular-Group"><g id="angular-Group"><g id="angular-Group"><g id="angular-Vector"><use xlink:href="#angular-path0_fill" transform="translate(-37.644 -522.64)" fill="#B52E31"/></g><g id="angular-Vector"><use xlink:href="#angular-path1_fill" transform="translate(-13.677 -522.82)" fill="#B52E31"/></g><g id="angular-Vector"><use xlink:href="#angular-path2_fill" transform="translate(9.2779 -522.64)" fill="#B52E31"/></g><g id="angular-Vector"><use xlink:href="#angular-path3_fill" transform="translate(33.424 -522.64)" fill="#B52E31"/></g><g id="angular-Vector"><use xlink:href="#angular-path4_fill" transform="translate(49.414 -525.64)" fill="#B52E31"/></g><g id="angular-Vector"><use xlink:href="#angular-path5_fill" transform="translate(75.148 -522.64)" fill="#B52E31"/></g></g><g id="angular-Group"><g id="angular-Vector"><use xlink:href="#angular-path6_fill" transform="translate(-92 -537)" fill="#E23237"/></g><g id="angular-Vector"><use xlink:href="#angular-path7_fill" transform="translate(-68.72 -537)" fill="#B52E31"/></g><g id="angular-Vector"><use xlink:href="#angular-path8_fill" transform="translate(-83.193 -531.16)" fill="#FFFFFF"/></g></g></g></g></g></g><defs><path id="angular-path0_fill" d="m8.6053e-9 22.727v-22.727l2.9236 6.8808e-8 13.896 18.29v-18.29l2.779 6.8808e-8v22.727h-2.924l-13.896-18.47 0.0002 18.47h-2.7792z" fill-rule="evenodd"/><path id="angular-path1_fill" d="m18.263 22.006c-1.841 0.685-3.826 1.046-5.919 1.046-8.2294 0-12.344-3.932-12.344-11.833 0-7.4672 3.9703-11.219 11.911-11.219 2.274 6.8808e-8 4.403 0.32468 6.352 0.93795v2.5252c-1.949-0.7576-3.97-1.1183-6.027-1.1183-6.2084 0-9.3124 2.9581-9.3124 8.8021 0 6.313 3.0679 9.452 9.1674 9.452 0.975 0 2.058-0.145 3.249-0.397v-7.612h2.923v9.416z" fill-rule="evenodd"/><path id="angular-path2_fill" d="m0.000002203 13.961v-13.961l2.9236 6.8808e-8v13.961c0 4.365 2.1656 6.566 6.5328 6.566 4.3316 0 6.5326-2.201 6.5326-6.566v-13.961l2.924 6.8808e-8v13.961c0 5.952-3.14 8.947-9.4566 8.947-6.3163 0-9.4564-2.995-9.4564-8.947z" fill-rule="evenodd"/><path id="angular-path3_fill" d="m2.9236 6.8808e-8v20.346h11.91v2.381h-14.834v-22.727l2.9236 6.8808e-8z" fill-rule="evenodd"/><path id="angular-path4_fill" d="m3.0679 25.722h-3.0679l11.297-25.722 11.297 25.722h-3.248l-2.924-7.143h-7.507l0.7941-2.381h5.7389l-4.259-10.282-8.1211 19.806z" fill-rule="evenodd"/><path id="angular-path5_fill" d="m0.000002203 22.727v-22.727l9.7091 6.8808e-8c4.3309 0 6.4969 1.8038 6.4969 5.4473 0 2.9582-2.13 5.1587-6.3525 6.5657l7.7965 10.714h-3.862l-7.219-10.209v-1.912c4.331-0.6854 6.533-2.3448 6.533-5.0144 0-2.0923-1.191-3.1385-3.6095-3.1385h-6.4968v20.274h-2.9957z" fill-rule="evenodd"/><path id="angular-path6_fill" d="m0 8.2973l23.28-8.2973 23.894 8.153-3.862 30.772-20.032 11.075-19.707-10.931-3.573-30.772z" fill-rule="evenodd"/><path id="angular-path7_fill" d="m23.894 8.153l-23.894-8.153v50l20.032-11.075 3.862-30.772z" fill-rule="evenodd"/><path id="angular-path8_fill" d="m14.51 2.7523e-7l-14.51 32.251 5.414-0.108 2.9236-7.287h6.1724 6.785l3.176 7.359 5.162 0.108-15.123-32.323zm0.036 10.354l4.908 10.245h-4.692-0.252-4.26l4.296-10.245z" fill-rule="evenodd"/></defs></svg><svg xmlns:xlink="http://www.w3.org/1999/xlink" height="50" width="51" version="1.1" viewBox="0 0 51 50" id="bootstrap" y="50"><title>bootstrap</title><desc>Created using Figma</desc><g id="bootstrap-Canvas" transform="translate(-88 471)"><g id="bootstrap-bootstrap"><g id="bootstrap-Group"><g id="bootstrap-Vector"><use xlink:href="#bootstrap-path0_fill" transform="translate(88 -471)" fill="#563D7C"/></g><g id="bootstrap-Vector"><use xlink:href="#bootstrap-path1_fill" transform="translate(102.1 -461.14)" fill="#FFFFFF"/></g></g></g></g><defs><path id="bootstrap-path0_fill" d="m0 43.553c0 3.561 2.892 6.447 6.4594 6.447h37.177c3.568 0 6.46-2.886 6.46-6.447v-37.106c0-3.561-2.892-6.447-6.46-6.447h-37.177c-3.5674 0-6.459 2.8864-6.459 6.447v37.106z"/><path id="bootstrap-path1_fill" d="m6.6695 12.254v-7.0812h6.2445c0.595 0 1.168 0.0494 1.721 0.1484 0.552 0.0989 1.041 0.2756 1.465 0.53 0.425 0.2544 0.765 0.6077 1.02 1.06 0.255 0.4522 0.382 1.0317 0.382 1.7384 0 1.272-0.382 2.1904-1.147 2.7564-0.765 0.565-1.741 0.848-2.931 0.848h-6.7545zm-6.6695-12.254v30.273h14.698c1.36 0 2.684-0.169 3.972-0.508 1.289-0.34 2.436-0.863 3.441-1.569 1.006-0.707 1.806-1.618 2.401-2.735 0.594-1.117 0.892-2.438 0.892-3.964 0-1.894-0.461-3.512-1.381-4.855s-2.315-2.283-4.184-2.82c1.359-0.65 2.386-1.484 3.079-2.501 0.694-1.018 1.041-2.2898 1.041-3.8162 0-1.4134-0.233-2.6006-0.701-3.5616-0.467-0.9611-1.125-1.7313-1.975-2.3108s-1.869-0.9964-3.059-1.2508c-1.189-0.2544-2.506-0.3816-3.95-0.3816h-14.274zm6.6695 25.101v-8.311h7.2645c1.444 0 2.605 0.332 3.483 0.997 0.878 0.664 1.317 1.773 1.317 3.328 0 0.792-0.134 1.442-0.403 1.951-0.269 0.508-0.631 0.911-1.084 1.208s-0.977 0.509-1.571 0.636c-0.595 0.127-1.218 0.191-1.87 0.191h-7.1365z"/></defs></svg><svg xmlns:xlink="http://www.w3.org/1999/xlink" height="50" width="56" version="1.1" viewBox="0 0 56 50" id="css" y="100"><title>css</title><desc>Created using Figma</desc><g id="css-Canvas" transform="translate(31 604)"><g id="css-css"><g id="css-Group"><g id="css-Vector"><use xlink:href="#css-path0_fill" transform="translate(-31 -604)" fill="#444444"/></g></g></g></g><defs><path id="css-path0_fill" d="m21.846 50l25.213-8.344 8.366-41.656h-47.227l-1.7959 9.2946h37.848l-1.179 5.9344h-37.905l-1.8536 9.295h37.85l-2.079 10.639-15.273 4.981-13.197-4.981 0.9-4.648h-9.3214l-2.1916 11.141 21.846 8.344z"/></defs></svg><svg xmlns:xlink="http://www.w3.org/1999/xlink" height="50" width="51" version="1.1" viewBox="0 0 51 50" id="es6" y="150"><title>es6</title><desc>Created using Figma</desc><g id="es6-Canvas" transform="translate(-113 604)"><g id="es6-es6"><g id="es6-Group"><g id="es6-Vector"><use xlink:href="#es6-path0_fill" transform="translate(113 -604)" fill="#F26522"/></g><g id="es6-Vector"><use xlink:href="#es6-path1_fill" transform="translate(133.65 -585.43)" fill="#FFFFFF"/></g></g></g></g><defs><path id="es6-path0_fill" d="m50.096 0h-50.096v50h50.096v-50z"/><path id="es6-path1_fill" d="m4.9973e-7 12.671h7.6625v-2.08h-5.2961v-3.2243h4.8829v-2.0807h-4.8829v-3.0179h5.2961v-2.0806l-7.6625-0.00005 4.9973e-7 12.484zm17.898-3.3924c0-2.493-0.169-3.0366-3.531-3.8426-2.16-0.5249-2.197-0.5624-2.197-1.987 0-1.0872 0.282-1.4246 1.878-1.4246 1.089 0 2.31 0.15 3.343 0.3749l0.263-1.9869c-1.24-0.28119-2.554-0.4124-3.644-0.4124-3.174 3.6623e-7 -4.2065 1.1247-4.2065 3.3928 0 2.643 0.4135 3.2241 3.4365 3.8989 2.254 0.4873 2.292 0.5998 2.292 1.9869 0 1.1994-0.282 1.5554-1.991 1.5554-1.24 0-2.367-0.224-3.531-0.581l-0.4131 1.856c0.8261 0.394 2.4791 0.75 3.9061 0.75 3.7 0 4.395-1.219 4.395-3.5804zm4.357-4.6487c0-1.9119 0.92-2.2868 3.136-2.2868 0.395 0 1.221 0.0562 1.766 0.1687l0.15-1.912c-0.563-0.13118-1.465-0.22491-2.16-0.22491-3.418 0-5.183 1.0497-5.183 4.3488v4.5549c0 2.1554 0.638 3.5804 3.869 3.5804 2.948 0 3.85-1.462 3.85-3.4117v-0.8997c0-2.1557-0.921-3.0929-3.193-3.0929-0.808 0-1.578 0.1125-2.235 0.3374v-1.1622zm1.878 2.793c0.826 0 1.258 0.2812 1.258 1.1809v0.9185c0 0.9557-0.375 1.3687-1.558 1.3687-1.184 0-1.578-0.338-1.578-1.3687v-1.7058c0.526-0.2249 1.202-0.3936 1.878-0.3936z"/></defs></svg><svg xmlns:xlink="http://www.w3.org/1999/xlink" height="50" width="51" version="1.1" viewBox="0 0 51 50" id="git" y="200"><title>git</title><desc>Created using Figma</desc><g id="git-Canvas" transform="translate(221 468)"><g id="git-git"><g id="git-Group"><g id="git-Vector"><use xlink:href="#git-path0_fill" transform="translate(-221 -468)" fill="#DE4C36"/></g></g></g></g><defs><path id="git-path0_fill" d="m49.151 22.773l-21.873-21.83c-1.258-1.2574-3.302-1.2574-4.562 0.00008l-4.542 4.5332 5.762 5.7507c1.339-0.452 2.874-0.149 3.942 0.917 1.072 1.072 1.373 2.617 0.91 3.958l5.552 5.542c1.344-0.462 2.894-0.163 3.967 0.91 1.499 1.496 1.499 3.921 0 5.418-1.5 1.497-3.93 1.497-5.43 0-1.128-1.127-1.407-2.78-0.836-4.167l-5.178-5.169-0.001 13.601c0.366 0.181 0.711 0.422 1.016 0.725 1.499 1.496 1.499 3.921 0 5.419-1.5 1.497-3.931 1.497-5.429 0-1.499-1.498-1.499-3.923 0-5.419 0.371-0.369 0.799-0.648 1.257-0.836v-13.728c-0.458-0.187-0.886-0.464-1.257-0.836-1.136-1.132-1.409-2.796-0.827-4.189l-5.679-5.6693-14.998 14.968c-1.2601 1.258-1.2601 3.297 0.00028 4.555l21.873 21.83c1.259 1.257 3.302 1.257 4.563 0l21.77-21.729c1.26-1.258 1.26-3.298 0-4.555z"/></defs></svg><svg xmlns:xlink="http://www.w3.org/1999/xlink" height="50" width="23" version="1.1" viewBox="0 0 23 50" id="gulp" y="250"><title>gulp</title><desc>Created using Figma</desc><g id="gulp-Canvas" transform="translate(137 468)"><g id="gulp-gulp"><g id="gulp-Group"><g id="gulp-Vector"><use xlink:href="#gulp-path0_fill" transform="translate(-133.9 -429.76)" fill="#D34A47"/></g><g id="gulp-Vector"><use xlink:href="#gulp-path1_fill" transform="translate(-137 -467.93)" fill="#D34A47"/></g><g id="gulp-Vector"><use xlink:href="#gulp-path2_fill" transform="translate(-123.91 -455.15)" fill="#FFFFFF"/></g><g id="gulp-Vector"><use xlink:href="#gulp-path3_fill" transform="translate(-116.02 -468)" fill="#D34A47"/></g><g id="gulp-Vector"><use xlink:href="#gulp-path4_fill" transform="translate(-136.92 -454.52)" fill="#D34A47"/></g></g></g></g><defs><path id="gulp-path0_fill" d="m14.31 10.255l0.48-7.9939 1.328-2.2611c0 0.0000012085-3.022 1.2333-8.0817 1.2333-5.0599 0-8.0363-1.2105-8.0363-1.2105l1.4882 2.4666 0.5264 7.7656c0 0.832 2.7523 1.507 6.1475 1.507 3.3949 0 6.1479-0.675 6.1479-1.507z"/><path id="gulp-path1_fill" d="m15.897 11.099l1.009-3.9799 5.59-5.8673-1.473-1.2518-5.918 6.2501-1.172 4.7549c-0.85-0.029-1.736-0.044-2.648-0.044-6.2323 0-11.285 0.709-11.285 1.583-5.4931e-10 0.874 5.0527 1.582 11.285 1.582 6.233 0 11.286-0.708 11.286-1.582 0-0.644-2.741-1.198-6.674-1.445z"/><path id="gulp-path2_fill" d="m2.219 0.54381s-0.2186 0.04888-0.8617 0.05162c-0.64325 0.00265-1.1-0.00416-1.2819-0.16945-0.048902-0.04438-0.075664-0.13251-0.075398-0.19218 0.00053194-0.11358 0.081348-0.1805 0.18432-0.2224l0.09739 0.1524c-0.04236 0.01458-0.06655 0.03182-0.06664 0.0502-0.00036 0.08628 0.65769 0.14532 1.161 0.13896 0.5034-0.00619 1.1117-0.04756 1.1122-0.13259 0-0.02573-0.046-0.04994-0.126-0.06904l0.0969-0.15133c0.1304 0.040396 0.2443 0.11845 0.244 0.25352-0.0012 0.22965-0.2941 0.26456-0.4842 0.29029z"/><path id="gulp-path3_fill" d="m1.5056 1.3282c0.1405-0.1619-0.0728-0.57611-0.4764-0.925-0.40382-0.34872-0.84512-0.50023-0.98592-0.33829-0.14063 0.16194 0.07275 0.57616 0.47656 0.92488 0.40364 0.34881 0.84516 0.50051 0.98576 0.33841z"/><path id="gulp-path4_fill" d="m17.066 15.491c-0.133-1.271 2.788-3.113 2.038-3.172-1.613 0.092-2.416 1.887-3.228 3.766-0.297 0.688-1.315 3.625-1.983 3.263-0.667-0.361 0.865-2.776 1.295-4.21-0.496 0.363-2.314 1.772-2.782 0.452-0.753 0.638-2.363 0.984-2.181-0.692-0.401 0.708-1.3004 1.696-2.3798 1.286-1.4177-0.54 0.8214-5.044 1.3782-4.817s-0.1124 1.253-0.2877 1.652c-0.3855 0.877-0.8307 1.979-0.5333 2.205 0.5097 0.386 1.8966-1.463 1.9276-1.504 0.259-0.341 0.998-2.578 1.594-2.321 0.595 0.257-1.486 3.21-0.708 3.796 0.157 0.118 0.799-0.073 1.19-0.495 0.253-0.273 0.166-0.877 1.008-2.881 0.842-2.0037 1.593-4.4995 2.171-4.3093 0.578 0.19 0.102 1.471-0.106 1.9485-0.972 2.2408-2.654 5.9438-1.861 5.6638 0.793-0.281 1.206-0.297 1.983-1.204 0.777-0.906 0.741-2.4 1.259-2.368 0.517 0.032 0.43 0.511 0.305 0.875 0.509-0.581 2.415-1.806 2.875-0.593 0.545 1.436-2.726 3.511-1.911 3.405 0.796-0.103 2.084-0.917 2.634-1.657l1.515-13.58s-1.524 1.2579-11.218 1.2579c-9.6939 0-11.06-1.2317-11.06-1.2317l1.2892 12.395c0.6842-1.94 2.3091-5.8638 4.8704-5.7321 1.1651 0.06 2.7205 2.2979 1.3882 2.3737-0.564 0.032-0.6212-1.117-1.289-1.2858-0.4819-0.1218-1.1528 0.269-1.5864 0.6924-0.8647 0.8442-2.7244 4.1748-2.4787 5.8348 0.3131 2.118 2.9285-0.735 3.3711-1.582 0.3116-0.597 0.5222-2.364 1.2038-2.179 0.6817 0.186-0.0595 2.01-0.5536 3.623-0.5551 1.811-0.8469 3.721-1.5426 3.501-0.6958-0.219 0.4376-2.557 0.3966-2.967-0.654 0.602-1.8588 2.126-3.4001 1.372l0.8006 7.697s2.1279 1.677 8.5375 1.677c6.411 0 8.617-1.651 8.617-1.651l0.994-8.915c-0.813 0.79-3.387 2.193-3.552 0.611z"/></defs></svg><svg xmlns:xlink="http://www.w3.org/1999/xlink" height="50" width="32" version="1.1" viewBox="0 0 32 50" id="heroku" y="300"><title>heroku</title><desc>Created using Figma</desc><g id="heroku-Canvas" transform="translate(-364 542)"><g id="heroku-heroku"><g id="heroku-Group"><g id="heroku-Vector"><use xlink:href="#heroku-path0_fill" transform="translate(364 -500.23)" fill="#6762A6"/></g><g id="heroku-Group"><g id="heroku-Vector"><use xlink:href="#heroku-path1_fill" transform="translate(364 -542)" fill="#6762A6"/></g><g id="heroku-Vector"><use xlink:href="#heroku-path2_fill" transform="translate(371.4 -536.59)" fill="#FFFFFF"/></g></g></g></g></g><defs><path id="heroku-path0_fill" d="m3.5097 8.0835v-4.3535c0-0.3069-0.2246-0.4394-0.4895-0.4394-0.5309 0-1.194 0.1325-1.796 0.3982v4.3947h-1.2242v-8.0835l1.2242 7.5572e-7v2.6668c0.5818-0.2143 1.2755-0.3981 1.9693-0.3981 1.1121 0 1.5304 0.6847 1.5304 1.6244v4.1904h-1.2142zm3.4992-2.6365c0.0408 1.4613 0.3266 1.7475 1.2241 1.7475 0.7041 0 1.4999-0.2351 2.112-0.4703l0.204 0.9196c-0.6528 0.2967-1.4486 0.5826-2.3972 0.5826-2.0409 0-2.3573-1.1238-2.3573-2.9125 0-0.9809 0.0717-1.8701 0.3062-2.6876 0.6121-0.2351 1.4284-0.3577 2.4586-0.3577 1.6737 0 2.1837 0.9301 2.1837 2.5549v0.6235h-3.7341zm1.5505-2.1564c-0.3668 0-0.9487 0.0102-1.4281 0.1018-0.0508 0.2454-0.1123 0.5827-0.1327 1.2062h2.5507c0-0.8485-0.1531-1.308-0.9899-1.308zm4.4786 0.3982v4.3947h-1.224v-4.9463c1.03-0.562 2.122-0.7358 2.836-0.7868v1.0219c-0.5 0.0409-1.132 0.1021-1.612 0.3165zm4.846 4.5376c-1.826 0-2.652-0.8991-2.652-2.9533 0-2.1768 1.091-3.0045 2.652-3.0045 1.827 0 2.653 0.8992 2.653 2.9534 0 2.1768-1.092 3.0044-2.653 3.0044zm0-4.9358c-0.938 0-1.459 0.5415-1.459 1.9825 0 1.574 0.439 1.9215 1.459 1.9215 0.939 0 1.46-0.5316 1.46-1.9726 0-1.574-0.439-1.9314-1.46-1.9314zm8.56 4.7929h-1.438c-0.337-0.8992-0.807-1.8191-1.531-2.6161h-0.643v2.6161h-1.224v-8.0835l1.224 7.5572e-7v4.6394h0.572c0.622-0.6439 1.101-1.4407 1.438-2.2278h1.378c-0.47 0.9505-1.072 1.7884-1.745 2.4731 0.806 1.022 1.439 2.1053 1.969 3.1988zm2.295 0.1429c-1.112 0-1.53-0.6844-1.53-1.6247v-4.1901h1.214v4.3433c0 0.3069 0.224 0.4396 0.489 0.4396 0.531 0 1.255-0.1327 1.858-0.3985v-4.3844h1.224v4.9259c-1.449 0.7971-2.561 0.8889-3.255 0.8889z"/><path id="heroku-path1_fill" d="m28.198 39.713h-24.417c-2.0881 0-3.781-1.695-3.781-3.787v-32.139c0-2.0914 1.6929-3.787 3.7814-3.787h24.417c2.088 0 3.782 1.6956 3.782 3.7874v32.139c0 2.092-1.694 3.787-3.782 3.787z"/><path id="heroku-path2_fill" d="m12.641 28.838v-15.771s1.024-3.7739-12.616 1.544c-0.025 0.068-0.025-14.584-0.025-14.584l4.4566-0.027v9.3872s12.478-4.9228 12.478 3.7328v15.719h-4.294v-0.001zm2.539-23.157h-4.727c1.701-2.0838 3.242-5.654 3.242-5.654l4.887 0.00005c0 0.000021-0.836 2.3266-3.402 5.654zm-15.099 23.13v-8.981l4.4838 4.491-4.4838 4.49z"/></defs></svg><svg xmlns:xlink="http://www.w3.org/1999/xlink" height="50" width="36" version="1.1" viewBox="0 0 36 50" id="html5" y="350"><title>html5</title><desc>Created using Figma</desc><g id="html5-Canvas" transform="translate(155 607)"><g id="html5-html5"><g id="html5-Group"><g id="html5-Vector"><use xlink:href="#html5-path0_fill" transform="translate(-155 -597.17)" fill="#E44D26"/></g><g id="html5-Vector"><use xlink:href="#html5-path1_fill" transform="translate(-137.18 -594.22)" fill="#F16529"/></g><g id="html5-Vector"><use xlink:href="#html5-path2_fill" transform="translate(-148.37 -589.78)" fill="#EBEBEB"/></g><g id="html5-Vector"><use xlink:href="#html5-path3_fill" transform="translate(-146.96 -574.16)" fill="#EBEBEB"/></g><g id="html5-Vector"><use xlink:href="#html5-path4_fill" transform="translate(-151.68 -607)"/></g><g id="html5-Vector"><use xlink:href="#html5-path5_fill" transform="translate(-144.09 -607)"/></g><g id="html5-Vector"><use xlink:href="#html5-path6_fill" transform="translate(-136.83 -607)"/></g><g id="html5-Vector"><use xlink:href="#html5-path7_fill" transform="translate(-128.07 -607)"/></g><g id="html5-Vector"><use xlink:href="#html5-path8_fill" transform="translate(-137.19 -580.81)" fill="#FFFFFF"/></g><g id="html5-Vector"><use xlink:href="#html5-path9_fill" transform="translate(-137.19 -589.78)" fill="#FFFFFF"/></g></g></g></g><defs><path id="html5-path0_fill" d="m35.645 3.128e-7l-3.247 36.152-14.597 4.022-14.557-4.016-3.244-36.158 35.645 3.128e-7z"/><path id="html5-path1_fill" d="m0 34.144l11.795-3.25 2.775-30.894-14.57 1.3068e-7v34.144z"/><path id="html5-path2_fill" d="m4.8768 4.4347h6.3132v-4.4347l-11.19 4.2884e-7 0.10682 1.1898 1.0968 12.22h9.9864v-4.4342h-5.9054l-0.4078-4.5411z"/><path id="html5-path3_fill" d="m4.4795-6.4207e-7h-4.4795l0.62518 6.963 9.1408 2.5218 0.0206-0.0057v-4.6139l-0.0196 0.0052-4.9698-1.3336-0.3177-3.5368z"/><path id="html5-path4_fill" d="m9.5829e-8 0h2.2677v2.2266h2.0745v-2.2266h2.2678v6.7426h-2.2677v-2.2578h-2.0745v2.2578h-2.2677l-0.000001831-6.7426h-0.000098073z"/><path id="html5-path5_fill" d="m1.9964 2.2359h-1.9964l1.6568e-7 -2.2359h6.2616v2.2359h-1.9973v4.5067h-2.2678v-4.5067h-0.0001z"/><path id="html5-path6_fill" d="m-8.6646e-7 0h2.3646l1.4546 2.3691 1.4531-2.3691h2.3655v6.7426h-2.2584v-3.342l-1.5602 2.3974h-0.039l-1.5613-2.3974v3.342h-2.2189l-8.6646e-7 -6.7426z"/><path id="html5-path7_fill" d="m1.4259e-7 0h2.2684v4.5139h3.1891v2.2287h-5.4575l1.4259e-7 -6.7426z"/><path id="html5-path8_fill" d="m-3.1117e-7 4.4346h5.4949l-0.5179 5.7514-4.977 1.335-3.1117e-7 4.614 9.1482-2.52 0.0671-0.749 1.0487-11.675 0.109-1.191-10.373 9.6032e-7 -3.1117e-7 4.4346z"/><path id="html5-path9_fill" d="m-3.1117e-7 4.4238v0.0109h10.779l0.089-0.9968 0.204-2.2481 0.106-1.1898-11.178 4.2884e-7 -3.1117e-7 4.4238z"/></defs></svg><svg xmlns:xlink="http://www.w3.org/1999/xlink" height="50" width="129" version="1.1" viewBox="0 0 129 50" id="jira" y="400"><title>jira</title><desc>Created using Figma</desc><g id="jira-Canvas" transform="translate(-380 479)"><g id="jira-jira"><g id="jira-Group"><g id="jira-Group"><g id="jira-Vector"><use xlink:href="#jira-path0_fill" transform="translate(477.2 -466.94)" fill="#264970"/></g><g id="jira-Vector"><use xlink:href="#jira-path1_fill" transform="translate(451.01 -466.94)" fill="#264970"/></g><g id="jira-Vector"><use xlink:href="#jira-path2_fill" transform="translate(437.81 -466.94)" fill="#264970"/></g><g id="jira-Vector"><use xlink:href="#jira-path3_fill" transform="translate(419.75 -466.94)" fill="#264970"/></g></g><g id="jira-Group"><g id="jira-Vector"><use xlink:href="#jira-path4_fill" transform="translate(384.64 -476.15)" fill="#264970"/></g><g id="jira-Vector"><use xlink:href="#jira-path5_fill" transform="translate(405.16 -476.15)" fill="#264970"/></g><g id="jira-Vector"><use xlink:href="#jira-path6_fill" transform="translate(394.9 -479)" fill="#264970"/></g><g id="jira-Vector"><use xlink:href="#jira-path7_fill" transform="translate(380 -467.64)" fill="#264970"/></g><g id="jira-Vector"><use xlink:href="#jira-path8_fill" transform="translate(386.16 -443.87)" fill="#264970"/></g><g id="jira-Vector"><use xlink:href="#jira-path9_fill" transform="translate(393.79 -464.63)" fill="#264970"/></g></g></g></g></g><defs><path id="jira-path0_fill" d="m20.852 0.63244c-0.119-0.37665-0.468-0.63244-0.862-0.63244l-8.439-2.2463e-9c-0.395 0-0.744 0.25579-0.862 0.63244l-10.647 33.768c-0.086763 0.275-0.037388 0.575 0.13285 0.808 0.17024 0.232 0.44125 0.369 0.72948 0.369h5.8094c0.4008 0 0.7539-0.264 0.8673-0.648l7.332-24.835s0.192-0.6208 0.856-0.6208c0.675 0 0.839 0.6448 0.839 0.6448l3.402 11.778h-4.674c-0.405 0-0.76 0.269-0.87 0.659l-1.312 4.662c-0.076 0.273-0.021 0.565 0.15 0.791s0.438 0.358 0.721 0.358h7.887l2.048 6.575c0.118 0.379 0.468 0.636 0.864 0.636h5.812c0.288 0 0.559-0.137 0.73-0.369 0.17-0.233 0.219-0.533 0.133-0.808l-10.647-33.768z"/><path id="jira-path1_fill" d="m7.3588 6.5748h7.0322c3.637 0 4.367 1.4311 4.367 3.7402v3.449c0 2.874-1.102 3.844-4.367 3.844h-7.0322v-11.033zm21.472 27.509l-7.728-11.147c3.328-1.38 5.014-4.273 5.014-8.598v-4.5463c0-6.7729-3.536-9.7927-11.465-9.7927l-13.748-2.2463e-9c-0.49893 0-0.904 0.40479-0.904 0.90402l6.5398e-7 33.768c0 0.5 0.40507 0.905 0.90431 0.905h5.5502c0.4992 0 0.9043-0.405 0.9043-0.905v-10.59h5.6802l7.725 11.107c0.169 0.243 0.446 0.388 0.742 0.388h6.632 0.006c0.5 0 0.904-0.405 0.904-0.905 0-0.224-0.081-0.43-0.217-0.588z"/><path id="jira-path2_fill" d="m6.4545-2.2463e-9h-5.5502c-0.49923 0-0.9043 0.40479-0.9043 0.90402l-7.3251e-7 33.768c0 0.5 0.40507 0.905 0.90431 0.905h5.5502c0.4995 0 0.9046-0.405 0.9046-0.905v-33.768c0-0.49921-0.4051-0.904-0.9046-0.904z"/><path id="jira-path3_fill" d="m11.522-2.2463e-9h-5.6181c-0.4757 0-0.8635 0.38584-0.8635 0.86125v26.424c0 3.321-2.5304 4.412-4.2428 4.499-0.23085 0.012-0.49956 0.157-0.64712 0.373-0.14814 0.216-0.18948 0.488-0.11254 0.738l1.366 4.443c0.1114 0.364 0.5032 0.597 1.1408 0.597 5.3751 0 9.8383-4.22 9.8383-9.876v-27.197c0-0.22898-0.091-0.44831-0.253-0.60994-0.161-0.16163-0.38-0.25206-0.608-0.25206z"/><path id="jira-path4_fill" d="m3.1235 8.7427e-8c-1.726 0-3.1235 1.3958-3.1235 3.126-1.8616e-7 1.726 1.3975 3.1267 3.1235 3.1267 1.7273 0 3.1234-1.4007 3.1234-3.1267 0-1.7302-1.3961-3.126-3.1234-3.126z"/><path id="jira-path5_fill" d="m3.1226 8.7427e-8c-1.7268 0-3.1226 1.3958-3.1226 3.126-6.0705e-7 1.726 1.3958 3.1267 3.1226 3.1267 1.7219 0 3.1229-1.4007 3.1229-3.1267 0-1.7302-1.401-3.1237-3.1229-3.126z"/><path id="jira-path6_fill" d="m3.1235 4.2723e-9c-1.726 0-3.1235 1.3955-3.1235 3.1263-2.6771e-7 1.726 1.3975 3.1269 3.1235 3.1269 1.727 0 3.1228-1.4009 3.1228-3.1269 0-1.7308-1.3958-3.1263-3.1228-3.1263z"/><path id="jira-path7_fill" d="m35.67 0.2067c-0.174-0.13206-0.382-0.20067-0.594-0.20067-0.118-0.0000015-0.237 0.021529-0.349 0.064879-2.115 0.80871-4.263 1.4228-6.223 1.8795-0.4 0.0933-0.723 0.3902-0.857 0.7467-1.428 3.9121-5.075 7.6369-8.901 11.539-0.154 0.146-0.368 0.338-0.719 0.338-0.349 0-0.562-0.186-0.719-0.338-3.825-3.902-7.472-7.6139-8.9009-11.526-0.134-0.3565-0.457-0.6533-0.856-0.7469-1.9614-0.4568-4.1145-1.0898-6.2269-1.8985-0.1131-0.043069-0.2319-0.0646-0.34991-0.0646-0.21187 2.1136e-7 -0.41685 0.066603-0.59025 0.19895-0.271 0.2067-0.41167 0.54201-0.37952 0.86415 0.32383 3.2532 1.6094 6.4335 3.9293 9.7659 2.1807 3.133 5.0251 6.034 7.7752 8.838 5.067 5.169 9.853 10.05 10.273 15.711 0.038 0.51 0.464 0.906 0.977 0.906h5.953c0.268 0 0.524-0.11 0.709-0.305 0.184-0.194 0.282-0.455 0.269-0.723-0.188-3.784-1.612-7.574-4.354-11.584-0.575-0.841-1.191-1.659-1.834-2.46-0.262-0.326-0.152-0.731 0.048-0.936 0.198-0.202 0.396-0.404 0.596-0.609 2.75-2.804 5.594-5.705 7.775-8.838 2.32-3.3327 3.605-6.4943 3.929-9.747 0.032-0.32697-0.116-0.67377-0.38-0.8753z"/><path id="jira-path8_fill" d="m5.4798 0.2977c-0.1407-0.14727-0.3476-0.2977-0.695-0.2977-0.4444-0.0000015538-0.708 0.30718-0.8076 0.45933-2.5039 3.8105-3.7972 7.4068-3.9761 11.021-0.012887 0.267 0.085295 0.531 0.2696 0.726 0.18517 0.193 0.44469 0.305 0.71225 0.305h5.9428c0.5113 0 0.942-0.4 0.9796-0.91 0.1294-1.7417 0.6717-3.4878 1.659-5.3225 0.3422-0.6347 0.0764-1.231-0.1206-1.4859-0.9795-1.2738-2.1792-2.6326-3.964-4.4949z"/><path id="jira-path9_fill" d="m4.2399 0.11196c1.8658 0 2.9478-0.11196 3.3279-0.11196 0.4605 4.6472e-7 0.9006 0.37723 0.9006 0.90546 0 0.15414-0.0365 0.26444-0.0727 0.36174-0.2474 0.6614-1.3751 3.0413-3.4745 5.0828-0.2354 0.2291-0.5024 0.2718-0.6862 0.2718h-0.0023c-0.1834 0-0.4501-0.0427-0.6855-0.2718-2.0994-2.0415-3.2274-4.4214-3.4743-5.0828-0.03644-0.0973-0.0729-0.2076-0.0729-0.36174 2.4816e-7 -0.52823 0.44067-0.90546 0.90115-0.90546 0.38005 4.6472e-7 1.4616 0.11196 3.3264 0.11196h0.0123z"/></defs></svg><svg xmlns:xlink="http://www.w3.org/1999/xlink" height="50" width="222" version="1.1" viewBox="0 0 222 50" id="jquery" y="450"><title>jquery</title><desc>Created using Figma</desc><g id="jquery-Canvas" transform="translate(-192 601)"><g id="jquery-jquery"><g id="jquery-Group"><g id="jquery-Group"><g id="jquery-Vector"><use xlink:href="#jquery-path0_fill" transform="translate(380.71 -597.3)" fill="#1A1918"/></g><g id="jquery-Vector"><use xlink:href="#jquery-path1_fill" transform="translate(358.11 -593.14)" fill="#1A1918"/></g><g id="jquery-Vector"><use xlink:href="#jquery-path2_fill" transform="translate(328.38 -593.46)" fill="#1A1918"/></g><g id="jquery-Vector"><use xlink:href="#jquery-path3_fill" transform="translate(298.97 -593.1)" fill="#1A1918"/></g><g id="jquery-Vector"><use xlink:href="#jquery-path4_fill" transform="translate(260.02 -601)" fill="#1A1918"/></g><g id="jquery-Vector"><use xlink:href="#jquery-path5_fill" transform="translate(249.33 -593.06)" fill="#1A1918"/></g><g id="jquery-Vector"><use xlink:href="#jquery-path6_fill" transform="translate(235.8 -583.77)" fill="#1A1918"/></g><g id="jquery-Group"><g id="jquery-Vector"><use xlink:href="#jquery-path7_fill" transform="translate(192 -591.11)" fill="#21609B"/></g><g id="jquery-Vector"><use xlink:href="#jquery-path8_fill" transform="translate(203.46 -595.12)" fill="#21609B"/></g><g id="jquery-Vector"><use xlink:href="#jquery-path9_fill" transform="translate(213.47 -596.97)" fill="#21609B"/></g></g></g></g></g></g><defs><path id="jquery-path0_fill" d="m23.254 1.3017e-7l9.29 0.050762s-17.272 23.273-18.683 25.17c-0.458 0.614-1.154 1.277-1.506 2.098-0.892 2.064-1.808 6.592-1.808 6.592l-8.5004 0.042s1.3225-4.72 1.2681-7.234c-0.0481-2.196-1.1754-4.389-1.808-6.592-0.6389-2.229-1.5067-6.592-1.5067-6.592h8.7389l1.2051 4.794 13.31-18.329z" fill-rule="evenodd"/><path id="jquery-path1_fill" d="m28.262 0.73884c1.714 1.028 2.766 6.6972 2.766 6.6972s-8.97 0.1315-13.852 0.1315h-4.219l-5.1225 22.174h-7.8345c-1.9737e-7 0 4.8754-24.098 6.0266-28.467 0.3734-1.4139 2.5553-1.1715 6.2404-1.1715l5.885-0.00002c3.8 0 8.242-0.48224 10.11 0.63536z" fill-rule="evenodd"/><path id="jquery-path2_fill" d="m21.523 11.867s0.244-1.423-0.829-3.0715c-0.916-1.4052-1.762-1.7318-4.173-1.8067-6.807-0.2128-6.6747 4.8032-6.6747 4.8032l11.677 0.075zm7.383-5.7441c0.997 3.5779-0.904 11.986-0.904 11.986s-9.929-0.165-15.368 0c-1.691 0.051-3.7155-0.183-4.2187 0.599-0.7083 1.096 0.2586 2.784 1.0783 3.497 0.9434 0.821 2.7814 0.914 3.4414 0.997 4.414 0.558 13.653 0.144 13.653 0.144l-1.6 7.048s-13.056 0.65-19.586-0.899c-1.2896-0.306-2.4981-0.923-3.3149-1.798-0.2229-0.239-0.416-0.566-0.627-0.848-0.1685-0.225-0.65936-0.965-0.87971-1.549-1.4914-3.952 0.17483-11.524 1.8079-15.582 0.1897-0.4699 0.428-1.0659 0.6785-1.5727 0.3131-0.6319 0.5781-1.3451 0.8282-1.7229 0.1685-0.2606 0.377-0.4285 0.5518-0.6743 0.2016-0.2906 0.4364-0.5723 0.6538-0.8236 0.6024-0.6954 1.2864-1.187 2.1091-1.7978 2.7208-2.0258 7.6443-3.599 13.56-2.9966 2.226 0.22756 5.59 1.0186 7.232 3.2961 0.44 0.6083 0.656 1.8156 0.904 2.6967z" fill-rule="evenodd"/><path id="jquery-path3_fill" d="m22.383 0.044839l7.596-0.044839c0-1.4032e-7 -4.233 19.971-6.391 29.71h-8.739c-6.1075 0-11.547 0.752-13.861-3.596-2.2445-4.222-0.10225-11.165 0.9042-15.881 0.7113-3.3383 2.2091-10.161 2.2091-10.161l7.8707-0.072c0-1.4032e-7 -2.224 10.622-3.1493 15.926-0.3313 1.9-1.0149 3.689-0.3011 5.094 0.678 1.337 1.6274 1.432 4.5194 1.498 0.917 0.021 3.918 0 3.918 0l5.424-22.473z" fill-rule="evenodd"/><path id="jquery-path4_fill" d="m25.774 22.324c0.795-2.81 1.955-5.858 1.808-8.39-0.16-2.708-2.444-5.1747-3.918-5.6929-4.438-1.5584-8.593 0.6201-10.245 2.3969-2.137 2.302-2.86 4.989-3.616 8.69-0.5632 2.747-1.0244 5.648 0 7.79 1.814 3.788 7.47 2.961 13.56 2.997 0.904-2.409 1.651-5.115 2.411-7.791zm10.546-11.087c0.868 6.275-2.461 13.2-4.755 19.222 2.339 0.21 4.388-0.032 4.535 0.141 0.154 0.225-1.567 7.189-2.167 7.207-1.856 0.048-8.005 0.099-10.57 0.099-8.368 0-16.197 0.542-20.189-3.596-1.6211-1.681-2.742-4.564-3.0134-6.592-0.45219-3.386 0.11444-7.114 0.904-10.188 0.7142-2.775 1.6301-5.394 3.0134-7.791 3.5164-6.1037 9.634-10.634 19.888-9.5884 1.988 0.20384 4.845 1.0698 6.629 2.0972 0.123 0.0724 0.555 0.4138 0.654 0.4738 2.411 1.5254 4.607 5.1659 5.071 8.5154z" fill-rule="evenodd"/><path id="jquery-path5_fill" d="m9.9831 0.035956c-0.5062 2.2923-1.0124 4.8904-1.5459 7.1556h-8.4372c0.65383-2.511 1.1541-5.0072 1.8079-7.1916 2.7-6.5291e-8 5.2102 0.035956 8.1752 0.035956z" fill-rule="evenodd"/><path id="jquery-path6_fill" d="m13.234-5.9542e-7h8.136c-1.063 5.8554-3.17 15.3-4.821 21.874-1.034 4.114-1.724 7.117-4.52 9.289-0.25 0.195-0.395 0.102-0.603 0.3-0.515 0.488-2.8986 1.055-4.2181 1.198-2.1457 0.231-4.5713 0.03-7.2079-0.023 0.68999-2.508 1.4706-5.52 2.0853-7.767 6.4273 0.773 6.5902-5.268 7.8344-11.087 0.7203-3.362 2.9023-12.435 3.3143-13.784z" fill-rule="evenodd"/><path id="jquery-path7_fill" d="m38.048 22.623l-0.175 0.449c-2.971 5.753-8.235 9.283-15.744 9.439-3.511 0.072-6.856-0.823-9.04-1.798-4.7159-2.106-8.6819-6.013-10.848-10.188-3.107-5.983-3.6673-14.308 2.7932-20.525 0.0995 3.5167e-8 -0.7836 1.3481-0.6841 1.3481l-0.1778 0.5753c-4.6555 14.494 9.6877 26.915 23.63 25.494 3.351-0.341 7.624-2.166 10.246-4.794z" fill-rule="evenodd"/><path id="jquery-path8_fill" d="m18.154 20.639c3.508 0.024 7.172-1.606 9.341-3.895-1.898 4.792-7.394 7.872-14.765 6.892-6.1712-0.821-12.05-6.997-12.656-13.185-0.44271-4.503 1.1359-7.1908 3.7368-10.451-0.904 1.7052-1.2417 3.0203-1.326 3.8592-0.9882 9.7418 7.8252 16.729 15.669 16.78z" fill-rule="evenodd"/><path id="jquery-path9_fill" d="m17.131 10.392c-0.545 1.243-3.685 3.592-5.071 3.886-5.4904 1.163-9.0067-1.426-10.848-4.3719-0.27414-0.4403-0.78036-1.6417-0.87097-1.9475-0.71424-2.415-0.38583-6.0677 1.745-7.9586-0.6419 1.7978-0.7355 3.8862-0.3978 5.2437 0.2047 0.821 0.8283 2.2538 1.4523 3.1552 1.1358 1.6421 1.856 2.0411 3.3147 2.9131 0.6568 0.392 1.3617 0.707 1.6663 0.794 1.3829 0.404 4.3025 1.471 9.0095-1.714z" fill-rule="evenodd"/></defs></svg><svg xmlns:xlink="http://www.w3.org/1999/xlink" height="50" width="51" version="1.1" viewBox="0 0 51 50" id="js" y="500"><title>js</title><desc>Created using Figma</desc><g id="js-Canvas" transform="translate(-43 604)"><g id="js-js"><g id="js-Group"><g id="js-Vector"><use xlink:href="#js-path0_fill" transform="translate(43 -604)" fill="#F7DF1E"/></g><g id="js-Vector"><use xlink:href="#js-path1_fill" transform="translate(56.172 -581.04)"/></g><g id="js-Vector"><use xlink:href="#js-path2_fill" transform="translate(72.819 -581.31)"/></g></g></g></g><defs><path id="js-path0_fill" d="m0 0h50.096v50h-50.096v-50z"/><path id="js-path1_fill" d="m0.000079251 18.829l3.8337-2.316c0.7396 1.309 1.4123 2.416 3.0261 2.416 1.547 0 2.5223-0.604 2.5223-2.953v-15.976l4.7078-2.5282e-7v16.043c0 4.866-2.858 7.081-7.0282 7.081-3.766 0-5.9521-1.946-7.0618-4.296"/><path id="js-path2_fill" d="m-2.0983e-7 18.594l3.8332-2.215c1.0091 1.645 2.3206 2.853 4.6407 2.853 1.9501 0 3.1941-0.974 3.1941-2.316 0-1.611-1.277-2.182-3.4296-3.121l-1.1766-0.504c-3.3965-1.443-5.6497-3.255-5.6497-7.0817 0-3.5241 2.6902-6.2093 6.8938-6.2093 2.9931 4.735e-7 5.1451 1.0406 6.6921 3.7592l-3.666 2.3493c-0.807-1.4431-1.681-2.0136-3.026-2.0136-1.3788 0-2.2532 0.8726-2.2532 2.0136 0 1.4097 0.8744 1.9804 2.8918 2.8531l1.1774 0.5034c4.001 1.712 6.254 3.457 6.254 7.384 0 4.229-3.329 6.545-7.8011 6.545-4.3715 0-7.1963-2.081-8.5748-4.8"/></defs></svg><svg xmlns:xlink="http://www.w3.org/1999/xlink" height="50" width="178" version="1.1" viewBox="0 0 178 50" id="mongodb" y="550"><title>mongodb</title><desc>Created using Figma</desc><g id="mongodb-Canvas" transform="translate(-104 543)"><g id="mongodb-mongodb"><g id="mongodb-Group"><g id="mongodb-Group"><g id="mongodb-Vector"><use xlink:href="#mongodb-path0_fill" transform="translate(236.42 -524.06)" fill="#8E714E"/></g><g id="mongodb-Vector"><use xlink:href="#mongodb-path1_fill" transform="translate(132.66 -516.72)" fill="#442D22"/></g><g id="mongodb-Group"><g id="mongodb-Vector"><use xlink:href="#mongodb-path2_fill" transform="translate(112.05 -536.88)" fill="#FFFFFF"/></g><g id="mongodb-Vector"><use xlink:href="#mongodb-path2_fill" transform="translate(112.05 -536.88)" fill="#A6A385"/></g><g id="mongodb-Vector"><use xlink:href="#mongodb-path3_fill" transform="translate(114.84 -542.87)" fill="#FFFFFF"/></g><g id="mongodb-Vector"><use xlink:href="#mongodb-path3_fill" transform="translate(114.84 -542.87)" fill="#499D4A"/></g><g id="mongodb-Vector"><use xlink:href="#mongodb-path4_fill" transform="translate(104 -543)" fill="#FFFFFF"/></g><g id="mongodb-Vector"><use xlink:href="#mongodb-path4_fill" transform="translate(104 -543)" fill="#58AA50"/></g></g></g></g></g></g><defs><path id="mongodb-path0_fill" d="m32.882 1.7415c-0.16 0.0317-0.32 0.3801-0.32 0.57-0.032 1.2665-0.064 4.6233-0.064 6.9031 0 0.0634 0.096 0.1899 0.192 0.1899 0.48 0.0317 1.632 0.0634 2.624 0.0634 1.376 0 2.176-0.1899 2.624-0.3798 1.152-0.57 1.696-1.8052 1.696-3.1669 0-3.0714-2.176-4.2431-5.408-4.2431-0.224-0.0314-0.864-0.0314-1.344 0.0634zm8.256 14.154c0-3.135-2.336-4.876-6.56-4.876-0.192 0-1.536-0.032-1.856 0.031-0.096 0.032-0.224 0.095-0.224 0.19 0 2.249-0.032 5.827 0.064 7.22 0.064 0.602 0.512 1.457 1.056 1.71 0.576 0.317 1.888 0.38 2.784 0.38 2.528 0 4.736-1.393 4.736-4.655zm-14.784-15.896c0.32 0 1.28 0.094806 3.744 0.094806 2.336 0 4.192-0.063106 6.464-0.063106 2.784 0 6.624 0.9815 6.624 5.0979 0 2.0268-1.44 3.6418-3.328 4.4334-0.096 0.0317-0.096 0.0948 0 0.1265 2.688 0.6655 5.056 2.3115 5.056 5.4145 0 3.04-1.92 4.972-4.704 6.175-1.696 0.729-3.808 0.982-5.952 0.982-1.632 0-6.016-0.19-8.448-0.127-0.256-0.095 0.224-1.235 0.448-1.425 0.576-0.031 1.024-0.063 1.632-0.253 0.864-0.222 0.96-0.475 1.088-1.773 0.064-1.109 0.064-5.035 0.064-7.822 0-3.8314 0.032-6.4279 0-7.6945-0.032-0.9815-0.384-1.2982-1.088-1.4884-0.544-0.0948-1.44-0.2216-2.176-0.3164-0.16-0.1585 0.384-1.2352 0.576-1.3617zm-18.464 19.696c0.7683 0.602 2.2718 0.855 3.6158 0.855 1.728 0 3.456-0.317 5.12-1.805 1.696-1.52 2.88-3.863 2.88-7.6 0-3.5781-1.376-6.4913-4.192-8.2011-1.6-0.9818-3.648-1.3933-6.0157-1.3933-0.7039 0-1.376 0.0317-1.7919 0.2216-0.0961 0.0634-0.3201 0.3484-0.3201 0.5066-0.064 0.6334-0.064 5.5097-0.064 8.3602 0 2.945 0 7.061 0.064 7.536 0 0.475 0.224 1.203 0.7039 1.52zm-7.264-19.696c0.60808 0 2.944 0.094806 4.064 0.094806 2.0162 0 3.456-0.094806 7.2638-0.094806 3.2-3.9927e-7 5.888 0.85504 7.808 2.4697 2.336 1.9951 3.552 4.7501 3.552 8.1063 0 4.782-2.208 7.537-4.416 9.12-2.208 1.615-5.088 2.565-9.1836 2.565-2.176 0-5.92-0.064-9.0241-0.095h-0.03204c-0.15988-0.285 0.25598-1.393 0.51194-1.425 0.832-0.095 1.056-0.127 1.4722-0.285 0.6718-0.253 0.8-0.602 0.8961-1.773 0.0958-2.185 0.0637-4.813 0.0637-7.79 0-2.1216 0.0321-6.27-0.032-7.6-0.0958-1.108-0.5757-1.393-1.5359-1.5832-0.4799-0.0948-1.1201-0.2216-2.0159-0.3164-0.12811-0.222 0.44794-1.2035 0.60782-1.3934z" fill-rule="evenodd"/><path id="mongodb-path1_fill" d="m65.668 13.585c-0.8-0.095-1.376-0.222-2.081-0.539-0.095-0.063-0.256-0.38-0.256-0.506-0.064-1.109-0.064-4.2752-0.064-6.3968 0-1.7101-0.287-3.1983-1.024-4.2432-0.864-1.2035-2.112-1.9-3.712-1.9-1.408 2.5256e-7 -3.296 0.95014-4.864 2.2801-0.032 0.0314-0.288 0.2533-0.256-0.0951 0-0.3484 0.064-1.045 0.096-1.5199 0.033-0.44349-0.223-0.6651-0.223-0.6651-1.025 0.50662-3.905 1.1718-4.961 1.2666-0.768 0.1585-0.959 0.8867-0.159 1.14h0.032c0.863 0.2533 1.439 0.5383 1.887 0.8233 0.32 0.2533 0.288 0.6018 0.288 0.8868 0.032 2.3749 0.032 6.0163-0.063 8.0113-0.033 0.792-0.256 1.076-0.833 1.203l0.064-0.031c-0.448 0.095-0.8 0.19-1.344 0.253-0.192 0.19-0.192 1.203 0 1.425 0.352 0 2.208-0.095 3.745-0.095 2.112 0 3.2 0.095 3.744 0.095 0.223-0.253 0.288-1.204 0.159-1.425-0.608-0.032-1.056-0.095-1.471-0.222-0.576-0.127-0.737-0.411-0.769-1.076-0.063-1.679-0.063-5.2251-0.063-7.6317 0-0.6651 0.191-0.9819 0.383-1.1717 0.736-0.6332 1.92-1.0767 2.976-1.0767 1.024 0 1.696 0.3167 2.208 0.7285 0.704 0.5698 0.928 1.3931 1.024 1.9948 0.16 1.3617 0.096 4.0533 0.096 6.3968 0 1.266-0.096 1.583-0.576 1.741-0.224 0.095-0.8 0.222-1.472 0.285-0.224 0.222-0.16 1.204 0 1.425 0.928 0 2.016-0.095 3.616-0.095 1.984 0 3.264 0.095 3.776 0.095 0.16-0.19 0.224-1.108 0.096-1.361h0.001zm8.864-12.096c-1.697 0-2.753 1.2982-2.753 3.3247 0 2.0582 0.928 4.4331 3.553 4.4331 0.447 0 1.279-0.1899 1.663-0.6331 0.608-0.5701 1.025-1.7101 1.025-2.9133 0-2.6282-1.313-4.2114-3.488-4.2114zm-0.225 13.996c-0.64 0-1.088 0.189-1.375 0.348-1.345 0.855-1.953 1.678-1.953 2.66 0 0.918 0.352 1.646 1.121 2.28 0.927 0.791 2.207 1.171 3.839 1.171 3.264 0 4.704-1.741 4.704-3.451 0-1.204-0.608-1.995-1.856-2.438-0.896-0.381-2.528-0.57-4.48-0.57zm0.225 8.233c-1.953 0-3.361-0.412-4.576-1.33-1.185-0.887-1.697-2.217-1.697-3.135 0-0.253 0.065-0.95 0.641-1.583 0.351-0.381 1.119-1.109 2.944-2.344 0.063-0.031 0.095-0.063 0.095-0.126 0-0.064-0.064-0.127-0.127-0.159-1.505-0.57-1.953-1.488-2.081-1.995v-0.063c-0.031-0.19-0.096-0.38 0.193-0.57 0.223-0.158 0.544-0.348 0.895-0.57 0.544-0.317 1.12-0.665 1.472-0.95 0.065-0.063 0.065-0.127 0.065-0.19s-0.065-0.127-0.129-0.158c-2.239-0.7287-3.359-2.3754-3.359-4.8451 0-1.6149 0.735-3.0717 2.047-3.9898 0.897-0.6969 3.136-1.5516 4.608-1.5516h0.097c1.503 0.03141 2.335 0.34812 3.519 0.75994 0.64 0.22156 1.248 0.31636 2.08 0.31636 1.248 0 1.792-0.37976 2.24-0.82298 0.032 0.0631 0.096 0.22161 0.128 0.63308 0.032 0.4119-0.096 1.0133-0.416 1.4568-0.256 0.3481-0.831 0.6017-1.407 0.6017h-0.161c-0.576-0.0634-0.832-0.1268-0.832-0.1268l-0.128 0.0634c-0.032 0.0634 0 0.1265 0.032 0.2216l0.033 0.0634c0.063 0.285 0.191 1.1398 0.191 1.3617 0 2.5965-1.056 3.7363-2.176 4.5913-1.088 0.792-2.335 1.298-3.744 1.425-0.032 0-0.159 0-0.447 0.032-0.161 0-0.385 0.031-0.417 0.031h-0.032c-0.256 0.064-0.895 0.38-0.895 0.919 0 0.475 0.288 1.045 1.663 1.14 0.288 0.031 0.576 0.031 0.896 0.063 1.824 0.126 4.096 0.285 5.152 0.633 1.472 0.539 2.4 1.837 2.4 3.389 0 2.343-1.696 4.528-4.512 5.889-1.376 0.602-2.752 0.919-4.255 0.919zm18.239-22.071c-0.672 0-1.28 0.1582-1.728 0.4749-1.248 0.7599-1.888 2.2801-1.888 4.4965 0 4.1479 2.112 7.0619 5.12 7.0619 0.896 0 1.6-0.254 2.208-0.76 0.928-0.76 1.408-2.28 1.408-4.4019 0-4.1164-2.08-6.8714-5.12-6.8714zm0.577 13.553c-5.441 0-7.393-3.959-7.393-7.6635 0-2.5965 1.056-4.5916 3.168-6.0166 1.504-0.91818 3.296-1.4248 4.896-1.4248 4.16 0.000003 7.071 2.9449 7.071 7.1881 0 2.8818-1.151 5.1608-3.359 6.5548-1.056 0.696-2.88 1.362-4.384 1.362h0.001zm-57.024-13.553c-0.673 0-1.28 0.1582-1.729 0.4749-1.247 0.7599-1.888 2.2801-1.888 4.4965 0 4.1479 2.112 7.0619 5.12 7.0619 0.897 0 1.6-0.254 2.208-0.76 0.928-0.76 1.409-2.28 1.409-4.4019 0-4.1164-2.049-6.8714-5.12-6.8714zm0.576 13.553c-5.44 0-7.393-3.959-7.393-7.6635 0-2.5965 1.056-4.5916 3.168-6.0166 1.505-0.91818 3.296-1.4248 4.896-1.4248 4.161 0.000003 7.073 2.9449 7.073 7.1881 0 2.8818-1.153 5.1608-3.361 6.5548-1.024 0.696-2.848 1.362-4.383 1.362zm-36.576-0.317c-0.06407-0.095-0.12814-0.38-0.0961-0.728 0-0.254 0.06407-0.412 0.0961-0.475 0.67185-0.095 1.024-0.19 1.4078-0.285 0.6401-0.159 0.8961-0.507 0.9281-1.299 0.0962-1.9 0.0962-5.5096 0.0641-8.011v-0.0634c0-0.285 0-0.6335-0.3521-0.8868-0.5119-0.3164-1.12-0.6014-1.92-0.8233-0.28804-0.0948-0.47995-0.2533-0.44791-0.4432-0.0000039-0.1899 0.19191-0.4115 0.60807-0.4749 1.0559-0.0951 3.8077-0.75998 4.8957-1.2349 0.0641 0.06311 0.1602 0.25332 0.1602 0.50663l-0.032 0.34807c-0.0321 0.3485-0.0641 0.7603-0.0641 1.1718 0 0.1265 0.1281 0.2216 0.256 0.2216 0.064 0 0.1281-0.0317 0.1922-0.0634 2.0479-1.5833 3.9038-2.1533 4.8634-2.1533 1.569 0.00001 2.784 0.72854 3.713 2.2484 0.063 0.0951 0.127 0.1265 0.224 0.1265 0.064 0 0.159-0.0314 0.191-0.0948 1.888-1.4251 3.776-2.2801 5.024-2.2801 2.976 0.00001 4.737 2.185 4.737 5.8899 0 1.0449 0 2.4066-0.032 3.6417 0 1.1085-0.033 2.1215-0.033 2.8495 0 0.159 0.224 0.665 0.577 0.76 0.447 0.222 1.056 0.317 1.855 0.443h0.033c0.064 0.222-0.065 1.045-0.192 1.204-0.193 0-0.481 0-0.8-0.032-0.608-0.032-1.473-0.063-2.432-0.063-1.985 0-3.008 0.031-4.001 0.095-0.063-0.253-0.095-1.013 0-1.204 0.576-0.094 0.864-0.189 1.217-0.284 0.64-0.19 0.799-0.476 0.832-1.299 0-0.601 0.127-5.7311-0.065-6.9663-0.191-1.2665-1.152-2.7547-3.264-2.7547-0.8 0-2.047 0.3167-3.264 1.2349-0.063 0.0634-0.127 0.2216-0.127 0.3167v0.0317c0.127 0.6648 0.127 1.425 0.127 2.5965v2.0582c0 1.425-0.032 2.755 0 3.768 0 0.697 0.417 0.855 0.769 0.982 0.192 0.032 0.319 0.063 0.48 0.095 0.288 0.063 0.576 0.127 1.024 0.221 0.064 0.127 0.064 0.539-0.033 0.887-0.032 0.19-0.096 0.285-0.127 0.317-1.088-0.032-2.208-0.064-3.84-0.064-0.48 0-1.312 0.032-2.017 0.032-0.576 0-1.12 0.032-1.439 0.032-0.0325-0.064-0.0966-0.285-0.0966-0.634 0-0.284 0.0641-0.506 0.1286-0.57 0.16-0.031 0.287-0.063 0.448-0.063 0.383-0.063 0.703-0.126 1.023-0.19 0.544-0.158 0.736-0.443 0.768-1.14 0.097-1.583 0.192-6.111-0.032-7.2511-0.383-1.8366-1.439-2.755-3.1355-2.755-0.9919 0-2.2401 0.4749-3.2641 1.2351-0.1599 0.1266-0.288 0.4433-0.288 0.7283v1.8683c0 2.2798 0 5.1294 0.032 6.3644 0.0321 0.38 0.1599 0.824 0.8961 0.982 0.1599 0.032 0.4159 0.095 0.7359 0.127l0.5761 0.094c0.0641 0.191 0.032 0.951-0.0961 1.204-0.3201 0-0.7039-0.032-1.1521-0.032-0.6719-0.032-1.5359-0.063-2.4958-0.063-1.12 0-1.92 0.031-2.5601 0.063-0.4479-0.063-0.80003-0.063-1.1839-0.063z" fill-rule="evenodd"/><path id="mongodb-path2_fill" d="m4.1019 42.643l-1.312-0.443s0.1602-6.618-2.2398-7.093c-1.6-1.837 0.256-77.898 6.0158-0.254 0 0-1.9838 0.982-2.3359 2.66-0.3841 1.647-0.1281 5.13-0.1281 5.13z" fill-rule="evenodd"/><path id="mongodb-path3_fill" d="m2.0162 42.242s11.488-7.473 8.7998-23.021c-2.5918-11.305-8.704-15.01-9.3759-16.435-0.73592-1.0128-1.4401-2.786-1.4401-2.786l0.48023 31.444c0 0.031-0.9922 9.626 1.536 10.798z" fill-rule="evenodd"/><path id="mongodb-path4_fill" d="m10.171 42.78s-10.784-7.283-10.144-20.107c0.60819-12.825 8.2243-19.126 9.6961-20.266 0.9599-1.0136 0.9919-1.3938 1.0559-2.407 0.672 1.4251 0.544 21.311 0.64 23.654 0.288 9.025-0.512 17.416-1.248 19.126z" fill-rule="evenodd"/></defs></svg><svg xmlns:xlink="http://www.w3.org/1999/xlink" height="50" width="82" version="1.1" viewBox="0 0 82 50" id="nodejs" y="600"><title>nodejs</title><desc>Created using Figma</desc><g id="nodejs-Canvas" transform="translate(-432 542)"><g id="nodejs-nodejs"><g id="nodejs-Group"><g id="nodejs-Vector"><use xlink:href="#nodejs-path0_fill" transform="translate(463.47 -512.09)" fill="#539E43"/></g><g id="nodejs-Vector"><use xlink:href="#nodejs-path1_fill" transform="translate(432 -530.72)" fill="#333333"/></g><g id="nodejs-Vector"><use xlink:href="#nodejs-path2_fill" transform="translate(474.75 -542)" fill="#333333"/></g><g id="nodejs-Group"><g id="nodejs-Vector"><use xlink:href="#nodejs-path3_fill" transform="translate(496.18 -530.61)" fill="#333333"/></g><g id="nodejs-Vector"><use xlink:href="#nodejs-path4_fill" transform="translate(503.24 -522.61)" fill="#539E43"/></g></g><g id="nodejs-Group"><mask id="nodejs-mask0_alpha" mask-type="alpha"><g id="nodejs-mask 3"><g id="nodejs-Vector"><use xlink:href="#nodejs-path5_fill" transform="translate(453.45 -530.57)" fill="#FFFFFF"/></g></g></mask><g id="nodejs-Vector" mask="url(#nodejs-mask0_alpha)"><use xlink:href="#nodejs-path5_fill" transform="translate(453.45 -530.57)" fill="url(#nodejs-paint6_linear)"/></g><g id="nodejs-Group" mask="url(#nodejs-mask0_alpha)"><g id="nodejs-Vector"><use xlink:href="#nodejs-path6_fill" transform="translate(453.61 -530.54)" fill="url(#nodejs-paint7_linear)"/></g></g><g id="nodejs-Group" mask="url(#nodejs-mask0_alpha)"><g id="nodejs-Group"><g id="nodejs-Vector"><use xlink:href="#nodejs-path7_fill" transform="translate(453.91 -530.57)" fill="url(#nodejs-paint8_linear)"/></g><g id="nodejs-Vector"><use xlink:href="#nodejs-path8_fill" transform="translate(462.29 -515.96)" fill="url(#nodejs-paint9_linear)"/></g><g id="nodejs-Vector"><use xlink:href="#nodejs-path8_fill" transform="translate(462.29 -515.96)" fill="url(#nodejs-paint10_linear)"/></g></g></g></g></g></g></g><defs><linearGradient id="nodejs-paint6_linear" gradientUnits="userSpaceOnUse" gradientTransform="matrix(-7.0256 14.332 -12.578 -8.0054 18.157 7.4707)"><stop stop-color="#41873F" offset="0"/><stop stop-color="#418B3D" offset=".3288"/><stop stop-color="#419637" offset=".6352"/><stop stop-color="#3FA92D" offset=".9319"/><stop stop-color="#3FAE2A" offset="1"/></linearGradient><linearGradient id="nodejs-paint7_linear" gradientUnits="userSpaceOnUse" gradientTransform="matrix(19.713 -14.565 12.49 22.989 1.1116 -.55815)"><stop stop-color="#41873F" offset=".1376"/><stop stop-color="#54A044" offset=".4032"/><stop stop-color="#66B848" offset=".7136"/><stop stop-color="#6CC04A" offset=".9081"/></linearGradient><linearGradient id="nodejs-paint8_linear" gradientUnits="userSpaceOnUse" gradientTransform="matrix(17.98 0 0 21.008 -.74524 -.58464)"><stop stop-color="#6CC04A" offset=".091916"/><stop stop-color="#66B848" offset=".2864"/><stop stop-color="#54A044" offset=".5968"/><stop stop-color="#41873F" offset=".8624"/></linearGradient><linearGradient id="nodejs-paint9_linear" gradientUnits="userSpaceOnUse" gradientTransform="matrix(17.98 0 0 11.219 -9.1247 -2.8534)"><stop stop-color="#6CC04A" offset=".091916"/><stop stop-color="#66B848" offset=".2864"/><stop stop-color="#54A044" offset=".5968"/><stop stop-color="#41873F" offset=".8624"/></linearGradient><linearGradient id="nodejs-paint10_linear" gradientUnits="userSpaceOnUse" gradientTransform="matrix(-11.089 22.622 -36.256 -6.919 29.603 -8.1107)"><stop stop-color="#41873F" offset="0"/><stop stop-color="#418B3D" offset=".3288"/><stop stop-color="#419637" offset=".6352"/><stop stop-color="#3FA92D" offset=".9319"/><stop stop-color="#3FAE2A" offset="1"/></linearGradient><path id="nodejs-path0_fill" d="m8.9147 20.09c-0.2768 0-0.5352-0.073-0.7752-0.203l-2.4547-1.458c-0.3692-0.203-0.1846-0.277-0.0739-0.313 0.4984-0.167 0.5907-0.204 1.1075-0.499 0.0553-0.037 0.1291-0.018 0.1845 0.019l1.8826 1.126c0.0739 0.036 0.1661 0.036 0.2215 0l7.364-4.264c0.074-0.037 0.111-0.111 0.111-0.203v-8.5087c0-0.0923-0.037-0.1661-0.111-0.2031l-7.364-4.2451c-0.0738-0.0369-0.1661-0.0369-0.2215 0l-7.3643 4.2451c-0.0738 0.037-0.1108 0.1292-0.1108 0.2031v8.5087c0 0.074 0.037 0.166 0.1108 0.203l2.0118 1.163c1.089 0.553 1.7719-0.093 1.7719-0.739v-8.3974c0-0.1108 0.0923-0.2215 0.2215-0.2215h0.9413c0.1107 0 0.2215 0.0923 0.2215 0.2215v8.3974c0 1.459-0.7937 2.308-2.178 2.308-0.4245 0-0.7567 0-1.698-0.462l-1.938-1.107c-0.47989-0.277-0.7752-0.794-0.7752-1.348l-4.1562e-7 -8.5083c0-0.5537 0.29531-1.0705 0.77519-1.3473l7.3643-4.2636c0.4615-0.2584 1.089-0.2584 1.5504 0l7.3641 4.2636c0.48 0.2768 0.776 0.7936 0.776 1.3473v8.5083c0 0.554-0.296 1.071-0.776 1.348l-7.3641 4.263c-0.2399 0.111-0.5168 0.166-0.7752 0.166zm2.2703-5.85c-3.23 0-3.8945-1.477-3.8945-2.732 0-0.111 0.0923-0.222 0.2215-0.222h0.9598c0.1107 0 0.203 0.074 0.203 0.185 0.1476 0.978 0.5722 1.458 2.5282 1.458 1.551 0 2.215-0.351 2.215-1.181 0-0.48-0.184-0.831-2.602-1.071-2.012-0.203-3.2671-0.646-3.2671-2.2514 0-1.495 1.2551-2.3809 3.3591-2.3809 2.363 0 3.525 0.8121 3.673 2.5839 0 0.0554-0.018 0.1108-0.055 0.1662-0.037 0.0369-0.093 0.0738-0.148 0.0738h-0.96c-0.092 0-0.184-0.0738-0.203-0.1661-0.221-1.0152-0.793-1.3474-2.307-1.3474-1.698 0-1.901 0.5906-1.901 1.0336 0 0.5353 0.24 0.7014 2.529 0.9967 2.27 0.2953 3.34 0.7196 3.34 2.3066-0.018 1.625-1.347 2.548-3.691 2.548z"/><path id="nodejs-path1_fill" d="m17.534 5.4448c0-0.3322-0.184-0.646-0.48-0.8121l-7.8255-4.5035c-0.1292-0.073829-0.2769-0.11074-0.4245-0.1292l-0.0738 4.0693e-7c-0.1477 0-0.2954 0.055371-0.4246 0.1292l-7.8257 4.5035c-0.29533 0.1661-0.4799 0.4799-0.4799 0.8121l0.018457 12.108c0 0.166 0.092283 0.332 0.23994 0.406 0.14765 0.092 0.33222 0.092 0.46142 0l4.6512-2.658c0.2953-0.166 0.4799-0.48 0.4799-0.812v-5.6666c0-0.3322 0.1845-0.646 0.4799-0.8121l1.9748-1.1443c0.1477-0.0923 0.3138-0.1292 0.4799-0.1292s0.3323 0.0369 0.4615 0.1292l1.975 1.1443c0.295 0.1661 0.48 0.4799 0.48 0.8121v5.6666c0 0.332 0.184 0.646 0.48 0.812l4.651 2.658c0.147 0.092 0.332 0.092 0.48 0 0.147-0.074 0.24-0.24 0.24-0.406l-0.019-12.108z"/><path id="nodejs-path2_fill" d="m12.403 0.055371c-0.148-0.073828-0.332-0.073828-0.461 0-0.148 0.092289-0.24 0.23994-0.24 0.40605v11.997c0 0.111-0.056 0.222-0.166 0.296-0.111 0.055-0.222 0.055-0.333 0l-1.956-1.126c-0.2954-0.166-0.646-0.166-0.9414 0l-7.8257 4.522c-0.29533 0.166-0.4799 0.48-0.4799 0.812l0.0000012576 9.025c0 0.333 0.18457 0.646 0.47988 0.813l7.8257 4.522c0.2954 0.166 0.646 0.166 0.9414 0l7.826-4.522c0.295-0.167 0.48-0.48 0.48-0.813v-22.499c0-0.3503-0.185-0.6641-0.48-0.8302l-4.67-2.6024zm-0.72 22.961c0 0.092-0.037 0.166-0.111 0.203l-2.6757 1.55c-0.0739 0.037-0.1661 0.037-0.24 0l-2.6762-1.55c-0.0739-0.037-0.1108-0.129-0.1108-0.203v-3.101c0-0.092 0.0369-0.166 0.1108-0.203l2.6762-1.55c0.0739-0.037 0.1661-0.037 0.24 0l2.6757 1.55c0.074 0.037 0.111 0.129 0.111 0.203v3.101z"/><path id="nodejs-path3_fill" d="m17.017 8.4487c0.296-0.1661 0.462-0.4799 0.462-0.8121v-2.1964c0-0.3322-0.185-0.646-0.462-0.8121l-7.77-4.5035c-0.2954-0.16613-0.646-0.16613-0.9414-0.00002l-7.8257 4.522c-0.29533 0.1661-0.4799 0.4798-0.4799 0.8121l-4.1638e-9 9.0253c0 0.332 0.18457 0.646 0.47988 0.812l7.7704 4.43c0.2953 0.166 0.646 0.166 0.9228 0l4.7069-2.621c0.147-0.074 0.24-0.24 0.24-0.406s-0.093-0.332-0.24-0.406l-7.863-4.522c-0.1477-0.092-0.24-0.24-0.24-0.406v-2.824c0-0.1661 0.0923-0.3322 0.24-0.4061l2.4548-1.4027c0.1476-0.0923 0.3322-0.0923 0.4798 0l2.4544 1.4027c0.148 0.0923 0.24 0.24 0.24 0.4061v2.215c0 0.166 0.093 0.332 0.24 0.406 0.148 0.092 0.332 0.092 0.48 0l4.651-2.7133z"/><path id="nodejs-path4_fill" d="m1.5873 0.027685c0.0554-0.036914 0.1292-0.036914 0.1846 0l1.495 0.86748c0.0554 0.03692 0.0923 0.09229 0.0923 0.16614v1.7349c0 0.0739-0.0369 0.1292-0.0923 0.1662l-1.495 0.8674c-0.0554 0.0369-0.1292 0.0369-0.1846 0l-1.495-0.8674c-0.055386-0.037-0.0923-0.0923-0.0923-0.1662l2.6973e-7 -1.7349c0-0.07385 0.036914-0.12922 0.092285-0.16614l1.495-0.86748z"/><path id="nodejs-path5_fill" d="m9.1731 0.12458c-0.2953-0.16611-0.646-0.16611-0.9413 0l-7.7704 4.485c-0.29529 0.1662-0.4614 0.4799-0.4614 0.8121l-1.0911e-9 8.9883c0 0.332 0.18457 0.646 0.46142 0.812l7.7704 4.486c0.2953 0.166 0.646 0.166 0.9413 0l7.7709-4.486c0.295-0.166 0.461-0.48 0.461-0.812v-8.9883c0-0.3322-0.185-0.6459-0.461-0.8121l-7.7709-4.485z"/><path id="nodejs-path6_fill" d="m16.796 4.5773l-7.8074-4.485c-0.0739-0.036929-0.1662-0.073843-0.24-0.0923l-8.7486 14.987c0.073828 0.092 0.16611 0.166 0.2584 0.222l7.8073 4.485c0.2215 0.129 0.4799 0.166 0.7198 0.092l8.2135-15.024c-0.055-0.0739-0.129-0.1293-0.203-0.1847z"/><path id="nodejs-path7_fill" d="m16.519 15.225c0.221-0.129 0.388-0.35 0.461-0.59l-8.5636-14.618c-0.2215-0.037119-0.4614-0.018662-0.6645 0.11054l-7.7519 4.4666 8.361 15.246c0.1108-0.019 0.24-0.056 0.3507-0.111l7.8073-4.504z" fill-rule="evenodd"/><path id="nodejs-path8_fill" d="m8.1395 0.60908l-7.7888 4.485c-0.11076 0.0554-0.2215 0.0923-0.3507 0.1108l0.14766 0.2768 8.6378-5.0018v-0.11076l-0.2215-0.36914c-0.0369 0.2584-0.203 0.47988-0.4245 0.60908z" fill-rule="evenodd"/></defs></svg><svg xmlns:xlink="http://www.w3.org/1999/xlink" height="50" width="82" version="1.1" viewBox="0 0 82 50" id="pug" y="650"><title>pug</title><desc>Created using Figma</desc><g id="pug-Canvas" transform="translate(256 603)"><g id="pug-pug"><g id="pug-Group"><g id="pug-Vector"><use xlink:href="#pug-path0_fill" transform="translate(-243.2 -603)" fill="#EFCCA3"/></g><g id="pug-Vector"><use xlink:href="#pug-path1_fill" transform="translate(-215.19 -585.11)" fill="#CCAC8D"/></g><g id="pug-Vector"><use xlink:href="#pug-path2_fill" transform="translate(-206.36 -591.63)" fill="#CCAC8D"/></g><g id="pug-Group"><g id="pug-Vector"><use xlink:href="#pug-path3_fill" transform="translate(-203.05 -588.41)"/></g><g id="pug-Vector"><use xlink:href="#pug-path4_fill" transform="translate(-200.38 -586.76)" fill="#FFFFFF"/></g></g><g id="pug-Vector"><use xlink:href="#pug-path5_fill" transform="translate(-207.63 -583.08)" fill="#EFCCA3"/></g><g id="pug-Vector"><use xlink:href="#pug-path6_fill" transform="translate(-241.82 -585.11)" fill="#CCAC8D"/></g><g id="pug-Vector"><use xlink:href="#pug-path7_fill" transform="translate(-232.61 -581.62)" fill="#56332B"/></g><g id="pug-Vector"><use xlink:href="#pug-path8_fill" transform="translate(-216.52 -578.32)" fill="#442823"/></g><g id="pug-Vector"><use xlink:href="#pug-path9_fill" transform="translate(-215.06 -578.32)" fill="#442823"/></g><g id="pug-Vector"><use xlink:href="#pug-path10_fill" transform="translate(-220.19 -583.65)" fill="#56332B"/></g><g id="pug-Vector"><use xlink:href="#pug-path11_fill" transform="translate(-218.68 -579.97)"/></g><g id="pug-Vector"><use xlink:href="#pug-path12_fill" transform="translate(-219.96 -570.97)" fill="#7F4A41"/></g><g id="pug-Vector"><use xlink:href="#pug-path13_fill" transform="translate(-232.6 -566.78)" fill="#442823"/></g><g id="pug-Vector"><use xlink:href="#pug-path14_fill" transform="translate(-223.13 -565.76)" fill="#442823"/></g><g id="pug-Vector"><use xlink:href="#pug-path15_fill" transform="translate(-208.58 -565.76)" fill="#442823"/></g><g id="pug-Vector"><use xlink:href="#pug-path16_fill" transform="translate(-240.25 -591.63)" fill="#CCAC8D"/></g><g id="pug-Vector"><use xlink:href="#pug-path17_fill" transform="translate(-221.99 -571.47)"/></g><g id="pug-Group"><g id="pug-Vector"><use xlink:href="#pug-path18_fill" transform="matrix(.96842 -.24925 .25015 .96818 -214.45 -581.46)" fill="#331712"/></g><g id="pug-Vector"><use xlink:href="#pug-path19_fill" transform="matrix(.95526 .29578 -.29682 .95494 -216.67 -581.73)" fill="#331712"/></g></g><g id="pug-Group"><g id="pug-Vector"><use xlink:href="#pug-path20_fill" transform="translate(-238.07 -588.41)"/></g><g id="pug-Vector"><use xlink:href="#pug-path21_fill" transform="translate(-232.48 -586.76)" fill="#FFFFFF"/></g></g><g id="pug-Group"><g id="pug-Vector"><use xlink:href="#pug-path22_fill" transform="translate(-216.91 -582.77)" fill="#7F4A41"/></g></g><g id="pug-Vector"><use xlink:href="#pug-path23_fill" transform="translate(-234.76 -583.08)" fill="#EFCCA3"/></g><g id="pug-Vector"><use xlink:href="#pug-path24_fill" transform="translate(-240.87 -593.23)" fill="#CCAC8D"/></g><g id="pug-Vector"><use xlink:href="#pug-path25_fill" transform="translate(-195.26 -593.23)" fill="#CCAC8D"/></g><g id="pug-Vector"><use xlink:href="#pug-path26_fill" transform="translate(-223.52 -588.54)" fill="#CCAC8D"/></g><g id="pug-Vector"><use xlink:href="#pug-path27_fill" transform="translate(-219.19 -595.45)" fill="#CCAC8D"/></g><g id="pug-Vector"><use xlink:href="#pug-path28_fill" transform="translate(-240.55 -576.99)" fill="#CCAC8D"/></g><g id="pug-Vector"><use xlink:href="#pug-path29_fill" transform="translate(-197.65 -576.99)" fill="#CCAC8D"/></g><g id="pug-Group"><g id="pug-Vector"><use xlink:href="#pug-path30_fill" transform="translate(-229.04 -594.05)" fill="#CCAC8D"/></g></g><g id="pug-Vector"><use xlink:href="#pug-path31_fill" transform="translate(-200.89 -593.55)" fill="#CCAC8D"/></g><g id="pug-Vector"><use xlink:href="#pug-path32_fill" transform="translate(-245 -601.35)" fill="#CCAC8D"/></g><g id="pug-Vector"><use xlink:href="#pug-path33_fill" transform="translate(-198.98 -601.35)" fill="#CCAC8D"/></g><g id="pug-Vector"><use xlink:href="#pug-path34_fill" transform="translate(-199.32 -601.58)" fill="#56332B"/></g><g id="pug-Vector"><use xlink:href="#pug-path35_fill" transform="translate(-193.01 -597.54)" fill="#442823"/></g><g id="pug-Vector"><use xlink:href="#pug-path36_fill" transform="translate(-256 -601.58)" fill="#56332B"/></g><g id="pug-Vector"><use xlink:href="#pug-path37_fill" transform="translate(-249.57 -597.54)" fill="#442823"/></g><g id="pug-Vector"><use xlink:href="#pug-path38_fill" transform="translate(-242.26 -575.29)" fill="#CCAC8D"/></g><g id="pug-Vector"><use xlink:href="#pug-path39_fill" transform="translate(-190.26 -575.29)" fill="#CCAC8D"/></g><g id="pug-Group"><g id="pug-Vector"><use xlink:href="#pug-path40_fill" transform="translate(-221.99 -575.47)" fill="#442823"/></g><g id="pug-Vector"><use xlink:href="#pug-path41_fill" transform="translate(-224.91 -572.42)" fill="#442823"/></g><g id="pug-Vector"><use xlink:href="#pug-path42_fill" transform="translate(-225.87 -575.47)" fill="#442823"/></g></g><g id="pug-Group"><g id="pug-Vector"><use xlink:href="#pug-path43_fill" transform="translate(-209.6 -575.47)" fill="#442823"/></g><g id="pug-Vector"><use xlink:href="#pug-path44_fill" transform="translate(-206.67 -572.42)" fill="#442823"/></g><g id="pug-Vector"><use xlink:href="#pug-path45_fill" transform="translate(-205.72 -575.47)" fill="#442823"/></g></g></g></g></g><defs><path id="pug-path0_fill" d="m55.342 15.605c-0.127-2.791 0.254-5.265-1.017-7.3586-3.051-5.2016-10.677-8.2464-25.931-8.2464v0.44404h-0.318 0.318v-0.44404c-15.253-4.8396e-7 -23.261 3.0448-26.312 8.3099-1.2074 2.1571-1.0803 4.5671-1.271 7.3581-0.12711 2.22-1.144 4.568-0.69911 7.105 0.50845 3.299 0.69911 6.597 1.2075 9.642 0.3814 2.474 3.8134 4.567 4.1312 6.914 0.8898 6.471 7.6264 9.452 22.88 9.452v0.507h-0.382 0.064 0.381v-0.507c15.254 0 21.736-2.981 22.562-9.452 0.318-2.41 3.496-4.44 3.877-6.914 0.509-3.045 0.699-6.343 1.208-9.642 0.445-2.537-0.572-4.948-0.699-7.168z"/><path id="pug-path1_fill" d="m0.12711 0c2.7329 0.063434 4.6396 1.7762 6.4191 3.362 2.0974 1.8396 5.6568 3.1083 7.1178 4.6941 1.462 1.5859 3.369 3.1719 4.068 5.6459s0.89 5.645 0.89 6.47 0.445 0.634 1.716 0c2.987-1.459 6.292-5.392 6.292-5.392-0.382 2.474-3.623 4.694-3.941 7.041-0.762 6.471-7.054 9.579-22.625 9.579h-0.063999 0.38133"/><path id="pug-path2_fill" d="m1.3347 1.5748c0.572 1.9664 2.6058 8.6272-1.3347 6.4068 0.0000019396 0 1.6524 0.9515 2.6693 4.5674 1.0805 3.616 3.6863 4.06 3.6863 4.06s4.2584 0.824 7.4364-1.903c2.669-2.284 3.114-6.3438 1.97-9.4521-1.144-3.0448-3.178-3.9963-6.1651-4.6307-2.9871-0.69774-8.9613-1.2686-8.2622 0.9516z"/><path id="pug-path3_fill" d="m5.5929 11.164c3.0889 0 5.5931-2.4988 5.5931-5.5818s-2.5042-5.5822-5.5931-5.5822-5.5929 2.4992-5.5929 5.5822 2.504 5.5818 5.5929 5.5818z"/><path id="pug-path4_fill" d="m1.4618 2.918c0.8073 0 1.4618-0.6532 1.4618-1.459 0-0.80579-0.6545-1.459-1.4618-1.459-0.80734 0-1.4618 0.65321-1.4618 1.459-0.0000019396 0.8058 0.65446 1.459 1.4618 1.459z"/><path id="pug-path5_fill" d="m1.6524 4.8396e-7s5.021 3.4254 7.7538 6.7875c2.7328 3.3625 2.6698 3.9965 2.6698 3.9965l-1.971 0.888s-2.7961-5.2652-6.2281-7.2316c-3.4956-1.9665-3.8769-3.6158-3.8769-3.6158l1.6524-0.8246z"/><path id="pug-path6_fill" d="m26.948 0c-2.733 0.063434-4.767 1.7762-6.61 3.362-2.098 1.8396-5.784 3.1083-7.246 4.6941-1.461 1.5859-3.4315 3.1719-4.1306 5.6459-0.6992 2.474-0.9534 5.645-0.9534 6.47s0.1271 0.888-1.716 0c-2.9871-1.396-6.292-5.392-6.292-5.392 0.38133 2.474 3.6227 4.694 3.9405 7.041 0.8897 6.471 7.1815 9.579 22.752 9.579h0.065 0.254"/><path id="pug-path7_fill" d="m32.482 7.2315c-3.051-3.7426-7.945-7.2315-14.745-7.2315h-0.064c-6.8 0-11.694 3.4889-14.745 7.2315-3.1774 3.8695-2.9232 5.3915-2.9232 9.0715 0.0000366 13.321 4.7032 9.515 7.8174 11.164 3.1778 1.586 6.4828 1.078 9.8508 1.078h0.064c3.432 0 6.673 0.444 9.851-1.141 3.114-1.586 7.817 2.347 7.817-10.974 0.064-3.68 0.255-5.329-2.923-9.1985z"/><path id="pug-path8_fill" d="m1.3347-0.0000019359s-0.44492 6.1531-1.3347 7.3584l1.6524-0.3806-0.3177-6.9778z"/><path id="pug-path9_fill" d="m0.31778-0.0000019359s0.44489 6.1531 1.3346 7.3584l-1.6524-0.3806 0.31778-6.9778z"/><path id="pug-path10_fill" d="m0.10576 3.8695c-0.63556-1.459 1.6524-3.8061 5.2751-3.8695 3.6227-4.8396e-7 5.9111 2.3471 5.2751 3.8695s-2.9236 1.9665-5.2751 2.0299c-2.288-0.0634-4.6396-0.5075-5.2751-2.0299z"/><path id="pug-path11_fill" d="m3.8769 1.6493c0-0.2537 2.1609-0.3172 3.3049-1.0784 0 0.00001-2.3516 0.7612-2.86 0.4441-0.5085-0.25379-0.6356-1.015-0.6356-1.015 0-9.6793e-7 -0.1906 0.76121-0.572 1.015-0.4449 0.2537-3.1142-0.44409-3.1142-0.44409 9.6978e-7 0 3.5591 0.88809 3.5591 1.0784 0 0.1903-0.0635 0.8246-0.0635 1.2687 0 1.5858 0 5.5188 0.2542 5.8359 0.3813 0.5709 0.2542-4.2501 0.2542-5.8359-0.0636-0.5075-0.0635-1.015-0.1271-1.2687z"/><path id="pug-path12_fill" d="m5.2751 1.1418c1.0805 0 2.9871 0.7612 4.7031 1.9665-1.6524-1.8396-3.6226-3.1083-4.7031-3.1083-1.144 0.0000019359-3.5591 1.3956-5.2751 3.4254 1.7796-1.3955 4.0676-2.2836 5.2751-2.2836z"/><path id="pug-path13_fill" d="m17.478 8.183c-2.415 0-4.767-0.7612-6.928-1.3321-0.445-0.1269-0.8895 0.1903-1.3344 0.0634-4.004-1.2687-7.2454-3.4254-9.2156-6.1531v0.6344c0 13.321 4.7031 9.5784 7.8174 11.164 3.1776 1.586 6.4826 1.078 9.8506 1.078h0.064c3.432 0 6.673 0.444 9.851-1.142 3.114-1.585 7.817 2.284 7.817-11.037 0-0.50749 0-1.015 0.064-1.459-1.843 2.9814-5.212 5.3285-9.406 6.724-0.382 0.1269-1.271-0.1903-1.653-0.1268-2.288 0.7612-4.321 1.5858-6.927 1.5858z"/><path id="pug-path14_fill" d="m1.9702 0s-1.5889 4.7576-0.5084 6.8509l-1.4618-0.6343c9.6978e-7 0 1.0804-4.821 1.9702-6.2166z"/><path id="pug-path15_fill" d="m0.0000019396 0s1.5889 4.7576 0.50844 6.8509l1.4618-0.6343s-1.144-4.821-1.9702-6.2166z"/><path id="pug-path16_fill" d="m15.018 1.5748c-0.572 1.9664-2.606 8.6272 1.335 6.4068 0 0-1.653 0.9515-2.67 4.5674-1.017 3.616-3.6858 4.06-3.6858 4.06s-4.2583 0.824-7.4361-1.903c-2.6693-2.284-3.1142-6.3438-1.9702-9.4521 1.144-3.1082 3.1778-3.9963 6.1649-4.6307 2.9871-0.69774 8.8982-1.2686 8.2622 0.9516z"/><path id="pug-path17_fill" d="m7.1182 0.50748c1.716 0 7.0548 3.6792 7.1178 8.183v-0.2537c0-4.6942-4.3213-8.4368-7.1178-8.4368-2.7964 0-7.1182 3.806-7.1182 8.4368 4.8489e-7 0.0634 4.8489e-7 0.1268 4.8489e-7 0.2537 0.063556-4.5038 5.4022-8.183 7.1182-8.183z"/><path id="pug-path18_fill" d="m0.50838 1.9032c0.28078 0 0.50842-0.426 0.50842-0.95157s-0.22764-0.95163-0.50842-0.95163c-0.28077 0-0.50838 0.42606-0.50838 0.95163s0.22761 0.95157 0.50838 0.95157z"/><path id="pug-path19_fill" d="m0.50836 1.9034c0.28076 0 0.50834-0.4261 0.50834-0.95173 0-0.52559-0.22758-0.95167-0.50834-0.95167s-0.50836 0.42608-0.50836 0.95167c0 0.52563 0.2276 0.95173 0.50836 0.95173z"/><path id="pug-path20_fill" d="m5.5929 11.164c3.0889 0 5.5931-2.4988 5.5931-5.5818s-2.5042-5.5822-5.5931-5.5822-5.5929 2.4992-5.5929 5.5822 2.504 5.5818 5.5929 5.5818z"/><path id="pug-path21_fill" d="m1.4618 2.918c0.8073 0 1.4618-0.6532 1.4618-1.459 0-0.80579-0.6545-1.459-1.4618-1.459-0.80734 0-1.4618 0.65321-1.4618 1.459 0 0.8058 0.65446 1.459 1.4618 1.459z"/><path id="pug-path22_fill" d="m3.6862 0.0040723c0-0.063434-1.4618 0.63434-1.8431 0.69778-0.3813-0.06344-1.8431-0.76121-1.8431-0.69778 4.8489e-7 0.0000023 1.2076 0.0000023 1.8431 0.0000023h1.8431z"/><path id="pug-path23_fill" d="m10.423 4.8396e-7s-5.0206 3.4254-7.7535 6.7875c-2.7329 3.3625-2.6694 3.9965-2.6694 3.9965l1.9703 0.888s2.7964-5.2652 6.2284-7.2316c3.4322-1.9665 3.8772-3.6158 3.8772-3.6158l-1.653-0.8246z"/><path id="pug-path24_fill" d="m5.5294 4.8396e-7s-1.7161 4.6941-5.5294 6.6606c2.258e-15 0 5.9742-0.6978 5.5294-6.6606z"/><path id="pug-path25_fill" d="m0.023671 4.8396e-7s1.716 4.6941 5.5293 6.6606c0 0-5.9742-0.6978-5.5293-6.6606z"/><path id="pug-path26_fill" d="m17.414 4.0598s-3.75-3.9329-8.7704-4.0598c-0.0636-9.6793e-7 0.1271-9.6793e-7 0.0635-9.6793e-7h0.0636c-5.0845 0.12687-8.7707 4.0598-8.7707 4.0598 4.3854-3.0448 8.1351-2.9814 8.7707-2.9814-0.0636 0 4.2583-0.0634 8.6433 2.9814z"/><path id="pug-path27_fill" d="m8.7071 2.7277s-1.9066-2.6643-4.4489-2.7277l0.0636 4.8396e-7h0.0636c-1.9067 0.063435-4.3854 2.7277-4.3854 2.7277 2.1609-2.0934 4.3854-2.0299 4.3854-2.0299 0-0.00002 2.0973-0.06346 4.3217 2.0299z"/><path id="pug-path28_fill" d="m8.0716 3.7426s-2.9871 1.459-5.148 0.5709h-0.0636c-1.9067-1.0784-2.86-4.3135-2.86-4.3135 0 0.0000019359 1.9067 5.7091 8.0716 3.7426z"/><path id="pug-path29_fill" d="m0 3.7426s2.9871 1.459 5.148 0.5709c2.5422-1.0784 2.9236-4.3135 2.9236-4.3135 0 0.0000019359-1.9067 5.7091-8.0716 3.7426z"/><path id="pug-path30_fill" d="m-9.6978e-7 0.50458c1.6524-0.31717 4.3854-0.3806 6.5462 0.31717 2.7329 0.95155 0.5085 4.4404 1.0805 4.6306 0.572 0.1904 1.3347-2.4104 6.4193-2.1567 5.148 0.2537 5.72 2.5373 6.419 2.1567s-0.699-6.3434 6.991-4.9478c0-0.00002-8.072-2.1568-7.69 3.6792 0 0-4.64-3.5524-11.122-0.3806 0.0631 0 1.716-5.4554-8.644-3.2986z"/><path id="pug-path31_fill" d="m9.6978e-7 4.8396e-7c0.12711 0 0.19067 0.063434 0.25422 0.063434 0.06356 0-0.06355-0.063434-0.25422-0.063434z"/><path id="pug-path32_fill" d="m13.728-2.4198e-7s-6.864 8.627-7.8809 11.926c-1.0169 3.362-1.7795 17.127-2.6693 19.093l-3.1778-13.575 5.8471-14.145 7.8809-3.299z"/><path id="pug-path33_fill" d="m9.6978e-7 -2.4198e-7s6.864 8.627 7.8809 11.926c1.0169 3.362 1.7796 17.127 2.6691 19.093l3.178-13.575-5.8471-14.145-7.8809-3.299z"/><path id="pug-path34_fill" d="m0.022118 0.22874s7.3725 6.1532 9.5334 13.257c2.1605 7.105 1.2715 15.732 2.9235 16.811 2.352 1.522 5.021-7.549 5.911-8.501 1.398-1.522 6.038-5.392 6.355-6.089 0.318-0.698-9.406-11.292-13.664-13.385-5.1482-2.4104-11.504-2.6007-11.059-2.0933z"/><path id="pug-path35_fill" d="m0.0000019396 9.6793e-7s8.7071 11.101 8.58 24.93l3.496-7.105c-0.064 0-3.1146-9.0711-12.076-17.825z"/><path id="pug-path36_fill" d="m24.731 0.22874s-7.373 6.1532-9.534 13.257c-2.161 7.105-1.271 15.732-2.923 16.811-2.3517 1.522-5.021-7.549-5.9108-8.501-1.3982-1.522-6.0378-5.392-6.3556-6.089-0.31777-0.698 9.4062-11.292 13.664-13.385 5.148-2.4104 11.504-2.6007 11.059-2.0933z"/><path id="pug-path37_fill" d="m12.012 9.6793e-7s-8.7071 11.101-8.58 24.93l-3.432-7.105c1.2122e-7 0 3.0507-9.0711 12.012-17.825z"/><path id="pug-path38_fill" d="m-4.8489e-7 2.932s0.63556 3.4254 1.6524 4.5038c1.0169 1.0784 0.3178-0.8246 0.3178-0.8246s-1.0804-0.571-0.8898-4.9479c0.1907-4.377-1.0804 1.2687-1.0804 1.2687z"/><path id="pug-path39_fill" d="m2.2046 2.932s-0.6356 3.4254-1.6525 4.5038-0.31777-0.8246-0.31777-0.8246 1.0805-0.571 0.88977-4.9479c-0.19066-4.377 1.0805 1.2687 1.0805 1.2687z"/><path id="pug-path40_fill" d="m0.50845 1.015c0.2808 0 0.50845-0.22726 0.50845-0.50753s-0.22765-0.50747-0.50845-0.50747c-0.28081-0.0000019359-0.50845 0.2272-0.50845 0.50747s0.22764 0.50753 0.50845 0.50753z"/><path id="pug-path41_fill" d="m0.50845 1.015c0.2808 0 0.50845-0.22726 0.50845-0.50752 0-0.28027-0.22765-0.50748-0.50845-0.50748-0.28081 0-0.50845 0.22721-0.50845 0.50748 0 0.28026 0.22764 0.50752 0.50845 0.50752z"/><path id="pug-path42_fill" d="m0.50845 1.015c0.2808 0 0.50845-0.22726 0.50845-0.50753s-0.22765-0.50747-0.50845-0.50747c-0.28081-0.0000019359-0.50845 0.2272-0.50845 0.50747s0.22764 0.50753 0.50845 0.50753z"/><path id="pug-path43_fill" d="m0.50845 1.015c0.2808 0 0.50845-0.22726 0.50845-0.50753s-0.22765-0.50747-0.50845-0.50747c-0.28081-0.0000019359-0.50845 0.2272-0.50845 0.50747-0.0000019396 0.28027 0.22764 0.50753 0.50845 0.50753z"/><path id="pug-path44_fill" d="m0.50844 1.015c0.28081 0 0.50846-0.22726 0.50846-0.50752 0-0.28027-0.22765-0.50748-0.50846-0.50748-0.2808 0-0.50844 0.22721-0.50844 0.50748 0.0000019396 0.28026 0.22764 0.50752 0.50844 0.50752z"/><path id="pug-path45_fill" d="m0.50844 1.015c0.28081 0 0.50846-0.22726 0.50846-0.50753s-0.22765-0.50747-0.50846-0.50747c-0.2808-0.0000019359-0.50844 0.2272-0.50844 0.50747 0.0000019396 0.28027 0.22764 0.50753 0.50844 0.50753z"/></defs></svg><svg xmlns:xlink="http://www.w3.org/1999/xlink" height="50" width="57" version="1.1" viewBox="0 0 57 50" id="react" y="700"><title>react</title><desc>Created using Figma</desc><g id="react-Canvas" transform="translate(156 531)"><g id="react-react"><g id="react-Group"><g id="react-Vector"><use xlink:href="#react-path0_fill" transform="translate(-156 -531)" fill="#00D8FF"/></g></g></g></g><defs><path id="react-path0_fill" d="m46.337 16.206c-0.584-0.201-1.19-0.391-1.814-0.57 0.103-0.417 0.197-0.829 0.281-1.234 1.373-6.6474 0.475-12.003-2.591-13.766-2.94-1.6903-7.749 0.07241-12.605 4.2865-0.467 0.4053-0.935 0.8343-1.403 1.2839-0.312-0.2975-0.623-0.585-0.934-0.86-5.089-4.506-10.191-6.4048-13.254-4.6366-2.937 1.6955-3.807 6.7299-2.571 13.03 0.12 0.608 0.259 1.229 0.417 1.861-0.722 0.205-1.419 0.422-2.0857 0.654-5.9667 2.075-9.7773 5.325-9.7773 8.698 0 3.482 4.0907 6.976 10.306 9.094 0.49 0.167 0.999 0.325 1.523 0.475-0.17 0.684-0.318 1.353-0.442 2.006-1.179 6.191-0.259 11.106 2.671 12.791 3.026 1.74 8.104-0.049 13.049-4.359 0.391-0.34 0.783-0.702 1.176-1.08 0.509 0.488 1.018 0.951 1.523 1.386 4.79 4.11 9.521 5.769 12.447 4.08 3.023-1.745 4.006-7.026 2.73-13.45-0.097-0.491-0.211-0.992-0.338-1.502 0.357-0.105 0.707-0.214 1.048-0.327 6.461-2.134 10.665-5.585 10.665-9.114 0-3.385-3.934-6.658-10.021-8.747zm-1.401 15.582c-0.308 0.102-0.624 0.201-0.946 0.296-0.714-2.252-1.676-4.646-2.854-7.12 1.124-2.414 2.049-4.778 2.742-7.015 0.577 0.166 1.136 0.342 1.676 0.527 5.215 1.79 8.396 4.437 8.396 6.477 0 2.172-3.435 4.992-9.014 6.835zm-2.315 4.574c0.564 2.841 0.645 5.409 0.271 7.417-0.335 1.804-1.01 3.007-1.845 3.489-1.776 1.025-5.574-0.308-9.67-3.822-0.47-0.403-0.943-0.834-1.417-1.289 1.588-1.732 3.175-3.745 4.724-5.981 2.724-0.241 5.298-0.635 7.632-1.173 0.115 0.462 0.217 0.916 0.305 1.359zm-23.407 10.729c-1.736 0.611-3.118 0.628-3.953 0.148-1.778-1.022-2.517-4.969-1.509-10.263 0.116-0.606 0.253-1.229 0.412-1.866 2.308 0.509 4.863 0.876 7.594 1.096 1.56 2.188 3.193 4.2 4.838 5.96-0.359 0.346-0.717 0.676-1.074 0.986-2.186 1.906-4.377 3.259-6.308 3.939zm-8.13-15.316c-2.7479-0.936-5.0174-2.154-6.573-3.482-1.3978-1.194-2.1035-2.379-2.1035-3.34 0-2.047 3.0595-4.657 8.1625-6.431 0.619-0.215 1.267-0.418 1.94-0.608 0.705 2.287 1.63 4.679 2.746 7.097-1.13 2.454-2.069 4.884-2.781 7.199-0.479-0.138-0.944-0.283-1.391-0.435zm2.725-18.497c-1.059-5.3971-0.355-9.4687 1.415-10.49 1.885-1.0889 6.054 0.463 10.448 4.3537 0.281 0.2487 0.563 0.509 0.846 0.7783-1.637 1.7532-3.255 3.749-4.801 5.924-2.65 0.245-5.188 0.639-7.52 1.166-0.147-0.588-0.277-1.166-0.388-1.732zm24.31 5.986c-0.557-0.96-1.13-1.898-1.713-2.81 1.798 0.226 3.521 0.527 5.138 0.896-0.485 1.552-1.091 3.175-1.803 4.839-0.511-0.968-1.052-1.944-1.622-2.925zm-9.913-9.6283c1.11 1.1993 2.222 2.5393 3.316 3.9923-1.102-0.052-2.218-0.079-3.343-0.079-1.115 0-2.222 0.027-3.318 0.077 1.095-1.439 2.217-2.777 3.345-3.9903zm-9.977 9.6453c-0.557 0.963-1.088 1.933-1.591 2.906-0.701-1.658-1.301-3.289-1.791-4.863 1.608-0.359 3.323-0.652 5.109-0.874-0.592 0.92-1.169 1.865-1.727 2.831zm1.779 14.346c-1.846-0.205-3.587-0.484-5.194-0.833 0.497-1.602 1.11-3.267 1.826-4.961 0.505 0.972 1.038 1.943 1.598 2.908 0.571 0.983 1.163 1.947 1.77 2.886zm8.264 6.812c-1.141-1.228-2.279-2.586-3.39-4.047 1.079 0.043 2.179 0.064 3.297 0.064 1.149 0 2.284-0.026 3.402-0.075-1.098 1.487-2.206 2.847-3.309 4.058zm11.492-12.692c0.753 1.712 1.388 3.368 1.892 4.943-1.634 0.372-3.398 0.672-5.257 0.894 0.585-0.924 1.163-1.878 1.73-2.86 0.574-0.992 1.119-1.986 1.635-2.977zm-3.72 1.778c-0.881 1.523-1.786 2.977-2.704 4.35-1.672 0.119-3.4 0.181-5.161 0.181-1.754 0-3.46-0.055-5.103-0.161-0.955-1.391-1.879-2.849-2.754-4.357-0.873-1.504-1.677-3.02-2.405-4.528 0.728-1.511 1.529-3.029 2.397-4.53 0.871-1.505 1.787-2.956 2.733-4.338 1.676-0.126 3.395-0.192 5.132-0.192 1.745 0 3.466 0.066 5.141 0.194 0.932 1.371 1.842 2.818 2.716 4.323 0.883 1.522 1.695 3.03 2.429 4.509-0.732 1.504-1.542 3.028-2.421 4.549zm4.966-26.809c1.887 1.0853 2.621 5.462 1.436 11.201-0.076 0.367-0.161 0.74-0.254 1.118-2.338-0.538-4.877-0.939-7.535-1.187-1.549-2.199-3.153-4.1984-4.764-5.9292 0.433-0.4154 0.865-0.8115 1.296-1.1853 4.161-3.6106 8.049-5.0362 9.821-4.0174zm-12.831 17.218c2.779 0 5.032 2.247 5.032 5.019 0 2.771-2.253 5.018-5.032 5.018s-5.033-2.247-5.033-5.018c0-2.772 2.254-5.019 5.033-5.019z"/></defs></svg><svg xmlns:xlink="http://www.w3.org/1999/xlink" height="50" width="67" version="1.1" viewBox="0 0 67 50" id="sass" y="750"><title>sass</title><desc>Created using Figma</desc><g id="sass-Canvas" transform="translate(105 602)"><g id="sass-sass"><g id="sass-Group"><g id="sass-Vector"><use xlink:href="#sass-path0_fill" transform="translate(-105 -602)" fill="#CD6799"/></g></g></g></g><defs><path id="sass-path0_fill" d="m57.142 28.743c-2.315 0.012-4.328 0.572-6.012 1.401-0.618-1.23-1.237-2.326-1.346-3.13-0.121-0.938-0.266-1.51-0.121-2.631 0.145-1.12 0.8-2.715 0.788-2.837s-0.145-0.694-1.479-0.706c-1.333-0.013-2.485 0.255-2.618 0.608-0.133 0.354-0.388 1.157-0.558 1.986-0.23 1.217-2.666 5.565-4.06 7.842-0.449-0.889-0.836-1.668-0.921-2.289-0.121-0.938-0.267-1.511-0.121-2.631 0.145-1.12 0.8-2.716 0.787-2.837-0.012-0.122-0.145-0.694-1.478-0.707-1.334-0.012-2.485 0.256-2.619 0.609-0.133 0.353-0.278 1.182-0.557 1.985-0.279 0.804-3.515 8.062-4.364 9.938-0.436 0.962-0.812 1.729-1.079 2.252 0 0-0.012 0.037-0.048 0.098-0.23 0.45-0.364 0.694-0.364 0.694v0.012c-0.181 0.329-0.375 0.633-0.472 0.633-0.073 0-0.206-0.876 0.024-2.07 0.485-2.521 1.636-6.442 1.624-6.576 0-0.073 0.218-0.755-0.751-1.108-0.946-0.353-1.285 0.231-1.37 0.231s-0.145 0.207-0.145 0.207 1.054-4.408-2.013-4.408c-1.915 0-4.557 2.107-5.866 4.006-0.824 0.451-2.582 1.413-4.461 2.448-0.715 0.402-1.454 0.804-2.145 1.181-0.049-0.048-0.097-0.109-0.146-0.158-3.709-3.982-10.569-6.795-10.278-12.141 0.1089-1.949 0.7756-7.063 13.175-13.274 10.206-5.054 18.327-3.6535 19.733-0.5482 2.013 4.4332-4.351 12.665-14.896 13.858-4.025 0.451-6.134-1.108-6.667-1.692-0.558-0.609-0.642-0.646-0.848-0.524-0.34 0.183-0.122 0.731 0 1.047 0.315 0.828 1.612 2.29 3.806 3.008 1.939 0.633 6.654 0.987 12.363-1.23 6.388-2.484 11.382-9.389 9.915-15.174-1.467-5.8692-11.163-7.8055-20.339-4.5297-5.455 1.9485-11.37 5.0173-15.624 9.0117-5.0545 4.749-5.8545 8.878-5.5272 10.607 1.1757 6.138 9.5998 10.132 12.969 13.091-0.169 0.098-0.327 0.183-0.46 0.256-1.685 0.84-8.1093 4.214-9.7093 7.782-1.8181 4.043 0.2909 6.941 1.6849 7.331 4.3272 1.205 8.7754-0.962 11.163-4.543 2.388-3.58 2.097-8.232 0.994-10.363-0.012-0.024-0.024-0.049-0.048-0.073 0.436-0.256 0.884-0.524 1.321-0.78 0.86-0.511 1.709-0.986 2.436-1.376-0.412 1.133-0.715 2.485-0.861 4.433-0.181 2.29 0.752 5.261 1.976 6.43 0.546 0.511 1.188 0.524 1.6 0.524 1.43 0 2.073-1.194 2.788-2.606 0.873-1.73 1.66-3.739 1.66-3.739s-0.981 5.431 1.685 5.431c0.97 0 1.952-1.266 2.388-1.912v0.013s0.024-0.037 0.073-0.122c0.097-0.158 0.158-0.256 0.158-0.256v-0.024c0.387-0.682 1.26-2.229 2.557-4.798 1.673-3.313 3.285-7.453 3.285-7.453s0.145 1.011 0.642 2.691c0.291 0.986 0.897 2.07 1.382 3.118-0.388 0.548-0.63 0.852-0.63 0.852l0.012 0.012c-0.315 0.414-0.655 0.865-1.03 1.303-1.322 1.583-2.897 3.398-3.116 3.922-0.254 0.621-0.194 1.071 0.291 1.437 0.352 0.268 0.982 0.304 1.625 0.268 1.188-0.086 2.024-0.378 2.436-0.561 0.642-0.231 1.394-0.584 2.097-1.108 1.297-0.962 2.085-2.338 2.012-4.153-0.036-0.998-0.364-1.997-0.764-2.934 0.122-0.171 0.231-0.341 0.352-0.512 2.048-3.008 3.636-6.308 3.636-6.308s0.146 1.011 0.643 2.691c0.242 0.853 0.739 1.778 1.175 2.679-1.927 1.571-3.115 3.398-3.539 4.592-0.764 2.216-0.17 3.214 0.958 3.446 0.509 0.109 1.236-0.134 1.769-0.366 0.679-0.219 1.479-0.596 2.243-1.156 1.297-0.962 2.545-2.302 2.472-4.116-0.036-0.829-0.254-1.645-0.557-2.436 1.636-0.682 3.745-1.06 6.436-0.743 5.77 0.682 6.909 4.299 6.691 5.821s-1.43 2.35-1.83 2.606-0.534 0.341-0.497 0.524c0.048 0.268 0.242 0.256 0.581 0.207 0.473-0.085 3.031-1.23 3.14-4.031 0.182-3.58-3.212-7.49-9.212-7.453zm-44.509 15.076c-1.915 2.095-4.5814 2.886-5.733 2.217-1.2363-0.719-0.7515-3.812 1.6-6.028 1.4303-1.352 3.273-2.606 4.497-3.374 0.279-0.17 0.691-0.414 1.188-0.718 0.085-0.049 0.133-0.073 0.133-0.073l0.291-0.183c0.861 3.166 0.036 5.955-1.976 8.159zm13.939-9.523c-0.666 1.632-2.06 5.809-2.909 5.578-0.727-0.195-1.175-3.362-0.145-6.491 0.521-1.571 1.624-3.447 2.267-4.177 1.042-1.169 2.193-1.559 2.472-1.084 0.352 0.621-1.272 5.151-1.685 6.174zm11.503 5.529c-0.278 0.146-0.545 0.243-0.666 0.17-0.085-0.048 0.121-0.243 0.121-0.243s1.442-1.559 2.012-2.265c0.327-0.414 0.715-0.901 1.127-1.449v0.158c0 1.863-1.794 3.118-2.594 3.629zm8.873-2.034c-0.206-0.146-0.17-0.633 0.521-2.155 0.267-0.597 0.897-1.596 1.976-2.558 0.121 0.39 0.206 0.768 0.194 1.121-0.012 2.35-1.685 3.227-2.691 3.592z"/></defs></svg><svg xmlns:xlink="http://www.w3.org/1999/xlink" height="50" width="56" version="1.1" viewBox="0 0 56 50" id="sketch" y="800"><title>sketch</title><desc>Created using Figma</desc><g id="sketch-Canvas" transform="translate(5 467)"><g id="sketch-sketch"><g id="sketch-Group"><g id="sketch-Vector"><use xlink:href="#sketch-path0_fill" transform="translate(-5 -467)" fill="#FDB300"/></g><g id="sketch-Vector"><use xlink:href="#sketch-path1_fill" transform="translate(-5 -449.17)" fill="#EB6C00"/></g><g id="sketch-Vector"><use xlink:href="#sketch-path2_fill" transform="translate(22.894 -449.17)" fill="#EB6C00"/></g><g id="sketch-Vector"><use xlink:href="#sketch-path3_fill" transform="translate(6.2986 -449.17)" fill="#FDAD00"/></g><g id="sketch-Vector"><use xlink:href="#sketch-path4_fill" transform="translate(6.2985 -467)" fill="#FDD231"/></g><g id="sketch-Vector"><use xlink:href="#sketch-path5_fill" transform="translate(22.894 -467)" fill="#FDD231"/></g><g id="sketch-Vector"><use xlink:href="#sketch-path6_fill" transform="translate(38.616 -465.35)" fill="#FDAD00"/></g><g id="sketch-Vector"><use xlink:href="#sketch-path7_fill" transform="translate(-5 -465.35)" fill="#FDAD00"/></g><g id="sketch-Vector"><use xlink:href="#sketch-path8_fill" transform="translate(6.2985 -467)" fill="#FEEEB7"/></g></g></g></g><defs><path id="sketch-path0_fill" d="m27.894-1.0905e-12l-15.722 1.6464-12.172 16.183 27.894 32.171 27.894-32.171-12.171-16.183-15.723-1.646z"/><path id="sketch-path1_fill" d="m0-5.7172e-7l27.894 32.171-16.596-32.171-11.298-5.7172e-7z"/><path id="sketch-path2_fill" d="m16.596-5.7172e-7l-16.596 32.171 27.894-32.171-11.298-5.7172e-7z"/><path id="sketch-path3_fill" d="m-3.8839e-7 -5.7172e-7l16.596 32.171 16.596-32.171-33.192-5.7172e-7z"/><path id="sketch-path4_fill" d="m0.87366 1.6464l-0.87366 16.183 16.596-17.829-15.722 1.6464z"/><path id="sketch-path5_fill" d="m16.596 17.829l-0.874-16.183-15.722-1.646 16.596 17.829z"/><path id="sketch-path6_fill" d="m0.87366 16.183h11.298l-12.172-16.183 0.87366 16.183z"/><path id="sketch-path7_fill" d="m0 16.183h11.298l0.874-16.183-12.172 16.183z"/><path id="sketch-path8_fill" d="m16.596-1.0905e-12l-16.596 17.829h33.192l-16.596-17.829z"/></defs></svg><svg xmlns:xlink="http://www.w3.org/1999/xlink" height="50" width="50" version="1.1" viewBox="0 0 50 50" id="slack" y="850"><title>slack</title><desc>Created using Figma</desc><g id="slack-Canvas" transform="translate(-303 474)"><g id="slack-slack"><g id="slack-Group"><g id="slack-Vector"><use xlink:href="#slack-path0_fill" transform="translate(326.73 -474)" fill="#DFA22F"/></g><g id="slack-Vector"><use xlink:href="#slack-path1_fill" transform="translate(308.89 -468.2)" fill="#3CB187"/></g><g id="slack-Vector"><use xlink:href="#slack-path2_fill" transform="translate(308.8 -450.27)" fill="#CE1E5B"/></g><g id="slack-Vector"><use xlink:href="#slack-path3_fill" transform="translate(316.37 -442.79)" fill="#392538"/></g><g id="slack-Vector"><use xlink:href="#slack-path4_fill" transform="translate(334.21 -448.59)" fill="#BB242A"/></g><g id="slack-Vector"><use xlink:href="#slack-path5_fill" transform="translate(303 -468.11)" fill="#72C5CD"/></g><g id="slack-Vector"><use xlink:href="#slack-path6_fill" transform="translate(310.57 -460.63)" fill="#248C73"/></g><g id="slack-Vector"><use xlink:href="#slack-path7_fill" transform="translate(328.41 -466.43)" fill="#62803A"/></g></g></g></g><defs><path id="slack-path0_fill" d="m8.6908 3.0789c-0.76-2.3397-3.2727-3.62-5.612-2.8595-2.3396 0.76003-3.6199 3.2727-2.8594 5.612l11.517 35.434c0.791 2.186 3.152 3.414 5.418 2.762 2.364-0.681 3.805-3.191 3.051-5.513-0.029-0.088-11.514-35.435-11.514-35.435z"/><path id="slack-path1_fill" d="m8.6913 3.0787c-0.7605-2.3393-3.2732-3.6196-5.6124-2.8595-2.3397 0.76004-3.62 3.2727-2.8595 5.6124l11.517 35.434c0.791 2.185 3.152 3.413 5.418 2.761 2.364-0.681 3.805-3.191 3.051-5.513-0.029-0.088-11.514-35.435-11.514-35.435z"/><path id="slack-path2_fill" d="m41.123 8.6911c2.339-0.7601 3.619-3.2728 2.859-5.6124-0.76-2.3393-3.272-3.6196-5.612-2.8595l-35.434 11.517c-2.1852 0.791-3.4134 3.152-2.7612 5.418 0.68057 2.364 3.1912 3.805 5.5128 3.05 0.0886-0.028 35.435-11.513 35.435-11.513z"/><path id="slack-path3_fill" d="m2.7525 11.222c2.3065-0.75 5.2791-1.7158 8.4695-2.7522-0.75-2.3064-1.7158-5.2795-2.7526-8.4698l-8.4694 2.7529 2.7525 8.4691z"/><path id="slack-path4_fill" d="m2.7529 11.223c3.2018-1.04 6.1777-2.007 8.4691-2.7515-0.75-2.3065-1.7158-5.2803-2.7526-8.4715l-8.4694 2.7529 2.7529 8.4701z"/><path id="slack-path5_fill" d="m41.123 8.6911c2.339-0.7601 3.62-3.2728 2.859-5.6124-0.76-2.3393-3.272-3.6196-5.612-2.8595l-35.434 11.517c-2.1854 0.791-3.4136 3.152-2.761 5.418 0.68014 2.364 3.1908 3.805 5.5128 3.05 0.0881-0.028 35.435-11.513 35.435-11.513z"/><path id="slack-path6_fill" d="m2.7529 11.222c2.3065-0.75 5.2799-1.7158 8.4701-2.7522-1.04-3.2022-2.007-6.1781-2.7515-8.4698l-8.4715 2.7533 2.7529 8.4687z"/><path id="slack-path7_fill" d="m2.7529 11.224c3.2026-1.04 6.179-2.0076 8.4711-2.7525-1.041-3.2026-2.008-6.1794-2.7529-8.4715l-8.4711 2.7533 2.7529 8.4707z"/></defs></svg><svg xmlns:xlink="http://www.w3.org/1999/xlink" height="50" width="50" version="1.1" viewBox="0 0 50 50" id="trello" y="900"><title>trello</title><desc>Created using Figma</desc><g id="trello-Canvas" transform="translate(-234 475)"><g id="trello-trello"><g id="trello-Group"><g id="trello-Group"><g id="trello-Vector"><use xlink:href="#trello-path0_fill" transform="translate(234 -475)" fill="url(#trello-paint0_linear)"/></g><g id="trello-Vector"><use xlink:href="#trello-path1_fill" transform="translate(262.25 -468.5)" fill="#FFFFFF"/></g><g id="trello-Vector"><use xlink:href="#trello-path2_fill" transform="translate(240.5 -468.5)" fill="#FFFFFF"/></g></g></g></g></g><defs><linearGradient id="trello-paint0_linear" gradientUnits="userSpaceOnUse" gradientTransform="matrix(0 50 -50 0 50 0)"><stop stop-color="#0091E6" offset="0"/><stop stop-color="#0079BF" offset="1"/></linearGradient><path id="trello-path0_fill" d="m45.117 0h-40.234c-2.6969 0-4.883 2.1861-4.883 4.8828v40.234c0 2.697 2.1861 4.883 4.8828 4.883h40.234c2.697 0 4.883-2.186 4.883-4.883v-40.234c0-2.6969-2.186-4.883-4.883-4.883z"/><path id="trello-path1_fill" d="m12.906 0h-10.562c-1.2947 0-2.344 1.0493-2.344 2.3438v17.187c0 1.295 1.0493 2.344 2.3438 2.344h10.562c1.295 0 2.344-1.049 2.344-2.344v-17.187c0-1.2947-1.049-2.344-2.344-2.344z"/><path id="trello-path2_fill" d="m12.906 0h-10.562c-1.2947 0-2.344 1.0493-2.344 2.3438v29.687c0 1.295 1.0493 2.344 2.3438 2.344h10.562c1.295 0 2.344-1.049 2.344-2.344v-29.687c0-1.2947-1.049-2.344-2.344-2.344z"/></defs></svg><svg xmlns:xlink="http://www.w3.org/1999/xlink" height="50" width="58" version="1.1" viewBox="0 0 58 50" id="vue" y="950"><title>vue</title><desc>Created using Figma</desc><g id="vue-Canvas" transform="translate(-429 603)"><g id="vue-vue"><g id="vue-Group"><g id="vue-Vector"><use xlink:href="#vue-path0_fill" transform="translate(429 -603)" fill="#41B883"/></g><g id="vue-Vector"><use xlink:href="#vue-path1_fill" transform="translate(429 -603)" fill="#41B883"/></g><g id="vue-Vector"><use xlink:href="#vue-path2_fill" transform="translate(440.44 -603)" fill="#35495E"/></g></g></g></g><defs><path id="vue-path0_fill" d="m46.339 0h11.584l-28.961 50-28.962-50h11.44 10.716l6.806 11.594 6.661-11.594h10.716z"/><path id="vue-path1_fill" d="m0 0l28.962 50 28.961-50h-11.584l-17.377 30-17.522-30h-11.44z"/><path id="vue-path2_fill" d="m3.1072e-7 0l17.522 30.145 17.377-30.145h-10.716l-6.661 11.594-6.806-11.594h-10.716z"/></defs></svg><svg xmlns:xlink="http://www.w3.org/1999/xlink" height="50" width="45" version="1.1" viewBox="0 0 45 50" id="webpack" y="1000"><title>webpack</title><desc>Created using Figma</desc><g id="webpack-Canvas" transform="translate(80 468)"><g id="webpack-webpack"><g id="webpack-Group"><g id="webpack-Vector"><use xlink:href="#webpack-path0_fill" transform="translate(-80 -468)" fill="#FFFFFF"/></g><g id="webpack-Vector"><use xlink:href="#webpack-path1_fill" transform="translate(-77.32 -464.49)" fill="#8ED6FB"/></g><g id="webpack-Vector"><use xlink:href="#webpack-path2_fill" transform="translate(-69.429 -455.74)" fill="#1C78C0"/></g></g></g></g><defs><path id="webpack-path0_fill" d="m22.057-5.6705e-12l22.057 12.498v25.004l-22.057 12.498-22.057-12.498v-25.004l22.057-12.498z"/><path id="webpack-path1_fill" d="m37.497 33.125l-17.388 9.863v-7.67l10.837-5.978 6.551 3.785zm1.19-1.076v-20.61l-6.359 3.677v13.256l6.359 3.677zm-37.497 1.076l17.388 9.855v-7.671l-10.837-5.969-6.5508 3.785zm-1.1902-1.076v-20.61l6.3591 3.677v13.256l-6.3591 3.677zm0.74079-21.944l17.837-10.105v7.4204l-11.428 6.2946-0.0917 0.05-6.3175-3.66zm37.197 0l-17.829-10.105v7.4204l11.42 6.3036 0.092 0.05 6.317-3.669z"/><path id="webpack-path2_fill" d="m10.687 24.821l-10.687-5.895-1.6661e-7 -11.664 10.687 6.178v11.381zm1.532 0l10.687-5.887v-11.672l-10.687 6.178v11.381zm-11.503-18.91l10.737-5.9113 10.729 5.9113-10.729 6.2027-10.737-6.2027z"/></defs></svg><svg xmlns:xlink="http://www.w3.org/1999/xlink" height="50" width="51" version="1.1" viewBox="0 0 51 50" id="wordpress" y="1050"><title>wordpress</title><desc>Created using Figma</desc><g id="wordpress-Canvas" transform="translate(-168 475)"><g id="wordpress-wordpress"><g id="wordpress-Group"><g id="wordpress-Vector"><use xlink:href="#wordpress-path0_fill" transform="translate(168 -475)" fill="#464342"/></g></g></g></g><defs><path id="wordpress-path0_fill" d="m3.5603 24.999c0 8.489 4.9427 15.826 12.11 19.302l-10.249-28.03c-1.1926 2.667-1.8607 5.619-1.8607 8.728zm35.993-1.082c0-2.65-0.954-4.486-1.772-5.915-1.089-1.766-2.11-3.262-2.11-5.029 0-1.971 1.498-3.8066 3.608-3.8066 0.095 0 0.185 0.0119 0.278 0.0172-3.823-3.4957-8.916-5.63-14.51-5.63-7.506 0-14.111 3.8442-17.952 9.6664 0.5036 0.016 0.9787 0.026 1.3822 0.026 2.2478 0 5.7268-0.272 5.7268-0.272 1.158-0.068 1.294 1.63 0.137 1.766 0 0-1.164 0.137-2.459 0.205l7.825 23.23 4.702-14.076-3.348-9.155c-1.157-0.068-2.253-0.204-2.253-0.204-1.158-0.068-1.022-1.835 0.136-1.767 0 0 3.548 0.272 5.66 0.272 2.247 0 5.726-0.272 5.726-0.272 1.159-0.068 1.295 1.63 0.138 1.767 0 0-1.167 0.136-2.459 0.204l7.765 23.055 2.143-7.149c0.929-2.966 1.636-5.097 1.636-6.933zm-14.129 2.958l-6.447 18.699c1.925 0.564 3.961 0.873 6.07 0.873 2.503 0 4.902-0.432 7.136-1.215-0.058-0.092-0.11-0.19-0.153-0.296l-6.606-18.061zm18.477-12.165c0.093 0.683 0.145 1.416 0.145 2.205 0 2.177-0.407 4.623-1.634 7.682l-6.563 18.941c6.388-3.718 10.684-10.626 10.684-18.538 0.001-3.729-0.953-7.235-2.632-10.29zm-18.854-14.71c-13.81 0-25.047 11.215-25.047 24.999 0 13.787 11.237 25.001 25.047 25.001 13.811 0 25.049-11.214 25.049-25.001-0.001-13.784-11.238-24.999-25.049-24.999zm0 48.854c-13.177 0-23.898-10.701-23.898-23.855-0.0005-13.152 10.721-23.853 23.898-23.853 13.177 0.0003 23.898 10.701 23.898 23.853 0 13.154-10.721 23.855-23.898 23.855z"/></defs></svg></svg>
