<svg width="30" height="28" viewBox="0 0 30 28" version="1.1" xmlns="http://www.w3.org/2000/svg" xmlns:xlink="http://www.w3.org/1999/xlink">
<title>printer</title>
<desc>Created using Figma</desc>
<g id="Canvas" transform="translate(-1387 -235)">
<g id="printer">
<use xlink:href="#path0_fill" transform="translate(1387 235)" fill="#262427"/>
</g>
</g>
<defs>
<path id="path0_fill" d="M 6.92308 25.6667L 23.0769 25.6667L 23.0769 21L 6.92308 21L 6.92308 25.6667ZM 6.92308 14L 23.0769 14L 23.0769 7L 20.1923 7C 19.7115 7 19.3029 6.82986 18.9663 6.48958C 18.6298 6.14931 18.4615 5.73611 18.4615 5.25L 18.4615 2.33333L 6.92308 2.33333L 6.92308 14ZM 27.6923 15.1667C 27.6923 14.8507 27.5781 14.5773 27.3498 14.3464C 27.1214 14.1155 26.851 14 26.5385 14C 26.226 14 25.9555 14.1155 25.7272 14.3464C 25.4988 14.5773 25.3846 14.8507 25.3846 15.1667C 25.3846 15.4826 25.4988 15.7561 25.7272 15.987C 25.9555 16.2179 26.226 16.3333 26.5385 16.3333C 26.851 16.3333 27.1214 16.2179 27.3498 15.987C 27.5781 15.7561 27.6923 15.4826 27.6923 15.1667ZM 30 15.1667L 30 22.75C 30 22.908 29.9429 23.0447 29.8287 23.1602C 29.7145 23.2756 29.5793 23.3333 29.4231 23.3333L 25.3846 23.3333L 25.3846 26.25C 25.3846 26.7361 25.2163 27.1493 24.8798 27.4896C 24.5433 27.8299 24.1346 28 23.6538 28L 6.34615 28C 5.86538 28 5.45673 27.8299 5.12019 27.4896C 4.78365 27.1493 4.61538 26.7361 4.61538 26.25L 4.61538 23.3333L 0.576923 23.3333C 0.420673 23.3333 0.285457 23.2756 0.171274 23.1602C 0.0570913 23.0447 0 22.908 0 22.75L 0 15.1667C 0 14.2066 0.339543 13.3832 1.01863 12.6966C 1.69772 12.01 2.51202 11.6667 3.46154 11.6667L 4.61538 11.6667L 4.61538 1.75C 4.61538 1.26389 4.78365 0.850694 5.12019 0.510417C 5.45673 0.170139 5.86538 0 6.34615 0L 18.4615 0C 18.9423 0 19.4712 0.121528 20.0481 0.364583C 20.625 0.607639 21.0817 0.899306 21.4183 1.23958L 24.1587 4.01042C 24.4952 4.35069 24.7837 4.8125 25.024 5.39583C 25.2644 5.97917 25.3846 6.51389 25.3846 7L 25.3846 11.6667L 26.5385 11.6667C 27.488 11.6667 28.3023 12.01 28.9814 12.6966C 29.6605 13.3832 30 14.2066 30 15.1667Z"/>
</defs>
</svg>
